M48
; DRILL file {KiCad 5.1.5} date gio 2 gen 2020, 18:37:31
; FORMAT={-:-/ absolute / inch / decimal}
; #@! TF.CreationDate,2020-01-02T18:37:31+01:00
; #@! TF.GenerationSoftware,Kicad,Pcbnew,5.1.5
; #@! TF.FileFunction,Plated,1,2,PTH
FMAT,2
INCH
T1C0.0157
T2C0.0256
T3C0.0276
T4C0.0374
T5C0.0787
T6C0.0866
%
G90
G05
T1
X4.845Y-3.29
X4.845Y-3.33
X4.885Y-3.29
X4.885Y-3.33
X4.91Y-2.76
X4.91Y-2.8
X4.92Y-2.52
X4.92Y-2.56
X4.92Y-2.6
X4.9482Y-3.1528
X4.95Y-2.76
X4.95Y-2.8
X4.97Y-3.12
X5.0Y-3.09
X5.03Y-2.71
X5.03Y-3.03
X5.04Y-2.56
X5.04Y-2.66
X5.07Y-3.655
X5.1Y-2.74
X5.11Y-3.655
X5.12Y-2.65
X5.145Y-3.4
X5.15Y-3.655
X5.155Y-3.435
X5.16Y-2.68
X5.16Y-2.78
X5.165Y-3.47
X5.19Y-2.71
X5.19Y-3.53
X5.2Y-3.22
X5.205Y-3.655
X5.21Y-2.89
X5.21Y-2.93
X5.21Y-2.97
X5.2336Y-2.6963
X5.245Y-3.655
X5.28Y-2.56
X5.285Y-3.655
X5.32Y-2.74
X5.35Y-2.56
X5.39Y-3.4
X5.39Y-3.44
X5.39Y-3.48
X5.43Y-2.56
X5.48Y-3.15
X5.51Y-2.56
X5.51Y-2.63
X5.51Y-2.97
X5.52Y-2.75
X5.52Y-2.86
X5.53Y-3.23
X5.54Y-3.17
X5.56Y-2.86
X5.56Y-2.9
X5.58Y-2.74
X5.585Y-3.645
X5.59Y-2.66
X5.63Y-3.14
X5.655Y-3.635
X5.69Y-3.635
X5.725Y-3.635
X5.76Y-3.635
X5.835Y-3.56
X5.8602Y-2.6898
X5.97Y-3.21
X5.99Y-2.93
X5.99Y-2.97
X5.99Y-3.01
X6.01Y-3.2085
X6.02Y-3.61
X6.06Y-3.61
X6.07Y-2.91
X6.1Y-3.61
X6.43Y-2.93
X6.43Y-3.28
X6.52Y-3.26
X6.65Y-3.48
X6.67Y-3.28
X6.7Y-3.84
X6.7285Y-3.25
X6.74Y-2.99
X6.74Y-3.82
X6.84Y-2.9
X6.84Y-3.35
X6.88Y-3.35
X6.89Y-3.03
X6.91Y-2.96
X6.95Y-2.96
X6.99Y-2.96
X7.03Y-3.2
X7.03Y-3.29
X7.07Y-3.39
X7.11Y-3.39
X7.15Y-3.39
X7.065Y-2.59
X7.0841Y-2.5441
X7.0841Y-2.6359
X7.13Y-2.525
X7.13Y-2.655
X7.1759Y-2.5441
X7.1759Y-2.6359
X7.195Y-2.59
X4.695Y-3.98
X4.7141Y-3.9341
X4.7141Y-4.0259
X4.76Y-3.915
X4.76Y-4.045
X4.8059Y-3.9341
X4.8059Y-4.0259
X4.825Y-3.98
T4
X6.81Y-3.75
X6.81Y-3.8484
X6.81Y-3.9469
X6.52Y-3.75
X6.52Y-3.8484
X6.52Y-3.9469
X6.23Y-3.75
X6.23Y-3.8484
X6.23Y-3.9469
X5.07Y-3.75
X5.07Y-3.8484
X5.07Y-3.9469
X5.36Y-3.75
X5.36Y-3.8484
X5.36Y-3.9469
X5.65Y-3.75
X5.65Y-3.8484
X5.65Y-3.9469
X5.94Y-3.75
X5.94Y-3.8484
X5.94Y-3.9469
X7.1Y-3.75
X7.1Y-3.8484
X7.1Y-3.9469
T5
X4.75Y-3.78
X4.75Y-3.53
T6
X7.13Y-2.59
X4.76Y-3.98
T2
G00X4.8263Y-2.5837
M15
G01X4.8421Y-2.5837
M16
G05
G00X4.8263Y-2.7743
M15
G01X4.8421Y-2.7743
M16
G05
T3
G00X4.7063Y-2.5715
M15
G01X4.7259Y-2.5715
M16
G05
G00X4.7063Y-2.7865
M15
G01X4.7259Y-2.7865
M16
G05
T0
M30
