G04 #@! TF.GenerationSoftware,KiCad,Pcbnew,5.1.5*
G04 #@! TF.CreationDate,2020-01-02T18:37:30+01:00*
G04 #@! TF.ProjectId,servodriver,73657276-6f64-4726-9976-65722e6b6963,rev?*
G04 #@! TF.SameCoordinates,Original*
G04 #@! TF.FileFunction,Soldermask,Top*
G04 #@! TF.FilePolarity,Negative*
%FSLAX46Y46*%
G04 Gerber Fmt 4.6, Leading zero omitted, Abs format (unit mm)*
G04 Created by KiCad (PCBNEW 5.1.5) date 2020-01-02 18:37:30*
%MOMM*%
%LPD*%
G04 APERTURE LIST*
%ADD10C,0.100000*%
G04 APERTURE END LIST*
D10*
G36*
X121179880Y-98851776D02*
G01*
X121560593Y-98927504D01*
X121970249Y-99097189D01*
X122338929Y-99343534D01*
X122652466Y-99657071D01*
X122898811Y-100025751D01*
X123068496Y-100435407D01*
X123155000Y-100870296D01*
X123155000Y-101313704D01*
X123068496Y-101748593D01*
X122898811Y-102158249D01*
X122652466Y-102526929D01*
X122338929Y-102840466D01*
X121970249Y-103086811D01*
X121560593Y-103256496D01*
X121179880Y-103332224D01*
X121125705Y-103343000D01*
X120682295Y-103343000D01*
X120628120Y-103332224D01*
X120247407Y-103256496D01*
X119837751Y-103086811D01*
X119469071Y-102840466D01*
X119155534Y-102526929D01*
X118909189Y-102158249D01*
X118739504Y-101748593D01*
X118653000Y-101313704D01*
X118653000Y-100870296D01*
X118739504Y-100435407D01*
X118909189Y-100025751D01*
X119155534Y-99657071D01*
X119469071Y-99343534D01*
X119837751Y-99097189D01*
X120247407Y-98927504D01*
X120628120Y-98851776D01*
X120682295Y-98841000D01*
X121125705Y-98841000D01*
X121179880Y-98851776D01*
G37*
G36*
X136379442Y-99355518D02*
G01*
X136445627Y-99362037D01*
X136615466Y-99413557D01*
X136771991Y-99497222D01*
X136804954Y-99524274D01*
X136909186Y-99609814D01*
X136981247Y-99697622D01*
X137021778Y-99747009D01*
X137105443Y-99903534D01*
X137156963Y-100073373D01*
X137174359Y-100250000D01*
X137156963Y-100426627D01*
X137105443Y-100596466D01*
X137021778Y-100752991D01*
X136999183Y-100780523D01*
X136909186Y-100890186D01*
X136807729Y-100973448D01*
X136771991Y-101002778D01*
X136615466Y-101086443D01*
X136445627Y-101137963D01*
X136379442Y-101144482D01*
X136313260Y-101151000D01*
X135974740Y-101151000D01*
X135908558Y-101144482D01*
X135842373Y-101137963D01*
X135672534Y-101086443D01*
X135516009Y-101002778D01*
X135480271Y-100973448D01*
X135378814Y-100890186D01*
X135288817Y-100780523D01*
X135266222Y-100752991D01*
X135182557Y-100596466D01*
X135131037Y-100426627D01*
X135113641Y-100250000D01*
X135131037Y-100073373D01*
X135182557Y-99903534D01*
X135266222Y-99747009D01*
X135306753Y-99697622D01*
X135378814Y-99609814D01*
X135483046Y-99524274D01*
X135516009Y-99497222D01*
X135672534Y-99413557D01*
X135842373Y-99362037D01*
X135908557Y-99355519D01*
X135974740Y-99349000D01*
X136313260Y-99349000D01*
X136379442Y-99355518D01*
G37*
G36*
X151111442Y-99355518D02*
G01*
X151177627Y-99362037D01*
X151347466Y-99413557D01*
X151503991Y-99497222D01*
X151536954Y-99524274D01*
X151641186Y-99609814D01*
X151713247Y-99697622D01*
X151753778Y-99747009D01*
X151837443Y-99903534D01*
X151888963Y-100073373D01*
X151906359Y-100250000D01*
X151888963Y-100426627D01*
X151837443Y-100596466D01*
X151753778Y-100752991D01*
X151731183Y-100780523D01*
X151641186Y-100890186D01*
X151539729Y-100973448D01*
X151503991Y-101002778D01*
X151347466Y-101086443D01*
X151177627Y-101137963D01*
X151111442Y-101144482D01*
X151045260Y-101151000D01*
X150706740Y-101151000D01*
X150640558Y-101144482D01*
X150574373Y-101137963D01*
X150404534Y-101086443D01*
X150248009Y-101002778D01*
X150212271Y-100973448D01*
X150110814Y-100890186D01*
X150020817Y-100780523D01*
X149998222Y-100752991D01*
X149914557Y-100596466D01*
X149863037Y-100426627D01*
X149845641Y-100250000D01*
X149863037Y-100073373D01*
X149914557Y-99903534D01*
X149998222Y-99747009D01*
X150038753Y-99697622D01*
X150110814Y-99609814D01*
X150215046Y-99524274D01*
X150248009Y-99497222D01*
X150404534Y-99413557D01*
X150574373Y-99362037D01*
X150640557Y-99355519D01*
X150706740Y-99349000D01*
X151045260Y-99349000D01*
X151111442Y-99355518D01*
G37*
G36*
X180575442Y-99355518D02*
G01*
X180641627Y-99362037D01*
X180811466Y-99413557D01*
X180967991Y-99497222D01*
X181000954Y-99524274D01*
X181105186Y-99609814D01*
X181177247Y-99697622D01*
X181217778Y-99747009D01*
X181301443Y-99903534D01*
X181352963Y-100073373D01*
X181370359Y-100250000D01*
X181352963Y-100426627D01*
X181301443Y-100596466D01*
X181217778Y-100752991D01*
X181195183Y-100780523D01*
X181105186Y-100890186D01*
X181003729Y-100973448D01*
X180967991Y-101002778D01*
X180811466Y-101086443D01*
X180641627Y-101137963D01*
X180575442Y-101144482D01*
X180509260Y-101151000D01*
X180170740Y-101151000D01*
X180104558Y-101144482D01*
X180038373Y-101137963D01*
X179868534Y-101086443D01*
X179712009Y-101002778D01*
X179676271Y-100973448D01*
X179574814Y-100890186D01*
X179484817Y-100780523D01*
X179462222Y-100752991D01*
X179378557Y-100596466D01*
X179327037Y-100426627D01*
X179309641Y-100250000D01*
X179327037Y-100073373D01*
X179378557Y-99903534D01*
X179462222Y-99747009D01*
X179502753Y-99697622D01*
X179574814Y-99609814D01*
X179679046Y-99524274D01*
X179712009Y-99497222D01*
X179868534Y-99413557D01*
X180038373Y-99362037D01*
X180104557Y-99355519D01*
X180170740Y-99349000D01*
X180509260Y-99349000D01*
X180575442Y-99355518D01*
G37*
G36*
X158477442Y-99355518D02*
G01*
X158543627Y-99362037D01*
X158713466Y-99413557D01*
X158869991Y-99497222D01*
X158902954Y-99524274D01*
X159007186Y-99609814D01*
X159079247Y-99697622D01*
X159119778Y-99747009D01*
X159203443Y-99903534D01*
X159254963Y-100073373D01*
X159272359Y-100250000D01*
X159254963Y-100426627D01*
X159203443Y-100596466D01*
X159119778Y-100752991D01*
X159097183Y-100780523D01*
X159007186Y-100890186D01*
X158905729Y-100973448D01*
X158869991Y-101002778D01*
X158713466Y-101086443D01*
X158543627Y-101137963D01*
X158477442Y-101144482D01*
X158411260Y-101151000D01*
X158072740Y-101151000D01*
X158006558Y-101144482D01*
X157940373Y-101137963D01*
X157770534Y-101086443D01*
X157614009Y-101002778D01*
X157578271Y-100973448D01*
X157476814Y-100890186D01*
X157386817Y-100780523D01*
X157364222Y-100752991D01*
X157280557Y-100596466D01*
X157229037Y-100426627D01*
X157211641Y-100250000D01*
X157229037Y-100073373D01*
X157280557Y-99903534D01*
X157364222Y-99747009D01*
X157404753Y-99697622D01*
X157476814Y-99609814D01*
X157581046Y-99524274D01*
X157614009Y-99497222D01*
X157770534Y-99413557D01*
X157940373Y-99362037D01*
X158006557Y-99355519D01*
X158072740Y-99349000D01*
X158411260Y-99349000D01*
X158477442Y-99355518D01*
G37*
G36*
X129013442Y-99355518D02*
G01*
X129079627Y-99362037D01*
X129249466Y-99413557D01*
X129405991Y-99497222D01*
X129438954Y-99524274D01*
X129543186Y-99609814D01*
X129615247Y-99697622D01*
X129655778Y-99747009D01*
X129739443Y-99903534D01*
X129790963Y-100073373D01*
X129808359Y-100250000D01*
X129790963Y-100426627D01*
X129739443Y-100596466D01*
X129655778Y-100752991D01*
X129633183Y-100780523D01*
X129543186Y-100890186D01*
X129441729Y-100973448D01*
X129405991Y-101002778D01*
X129249466Y-101086443D01*
X129079627Y-101137963D01*
X129013442Y-101144482D01*
X128947260Y-101151000D01*
X128608740Y-101151000D01*
X128542558Y-101144482D01*
X128476373Y-101137963D01*
X128306534Y-101086443D01*
X128150009Y-101002778D01*
X128114271Y-100973448D01*
X128012814Y-100890186D01*
X127922817Y-100780523D01*
X127900222Y-100752991D01*
X127816557Y-100596466D01*
X127765037Y-100426627D01*
X127747641Y-100250000D01*
X127765037Y-100073373D01*
X127816557Y-99903534D01*
X127900222Y-99747009D01*
X127940753Y-99697622D01*
X128012814Y-99609814D01*
X128117046Y-99524274D01*
X128150009Y-99497222D01*
X128306534Y-99413557D01*
X128476373Y-99362037D01*
X128542557Y-99355519D01*
X128608740Y-99349000D01*
X128947260Y-99349000D01*
X129013442Y-99355518D01*
G37*
G36*
X165843442Y-99355518D02*
G01*
X165909627Y-99362037D01*
X166079466Y-99413557D01*
X166235991Y-99497222D01*
X166268954Y-99524274D01*
X166373186Y-99609814D01*
X166445247Y-99697622D01*
X166485778Y-99747009D01*
X166569443Y-99903534D01*
X166620963Y-100073373D01*
X166638359Y-100250000D01*
X166620963Y-100426627D01*
X166569443Y-100596466D01*
X166485778Y-100752991D01*
X166463183Y-100780523D01*
X166373186Y-100890186D01*
X166271729Y-100973448D01*
X166235991Y-101002778D01*
X166079466Y-101086443D01*
X165909627Y-101137963D01*
X165843442Y-101144482D01*
X165777260Y-101151000D01*
X165438740Y-101151000D01*
X165372558Y-101144482D01*
X165306373Y-101137963D01*
X165136534Y-101086443D01*
X164980009Y-101002778D01*
X164944271Y-100973448D01*
X164842814Y-100890186D01*
X164752817Y-100780523D01*
X164730222Y-100752991D01*
X164646557Y-100596466D01*
X164595037Y-100426627D01*
X164577641Y-100250000D01*
X164595037Y-100073373D01*
X164646557Y-99903534D01*
X164730222Y-99747009D01*
X164770753Y-99697622D01*
X164842814Y-99609814D01*
X164947046Y-99524274D01*
X164980009Y-99497222D01*
X165136534Y-99413557D01*
X165306373Y-99362037D01*
X165372557Y-99355519D01*
X165438740Y-99349000D01*
X165777260Y-99349000D01*
X165843442Y-99355518D01*
G37*
G36*
X173209442Y-99355518D02*
G01*
X173275627Y-99362037D01*
X173445466Y-99413557D01*
X173601991Y-99497222D01*
X173634954Y-99524274D01*
X173739186Y-99609814D01*
X173811247Y-99697622D01*
X173851778Y-99747009D01*
X173935443Y-99903534D01*
X173986963Y-100073373D01*
X174004359Y-100250000D01*
X173986963Y-100426627D01*
X173935443Y-100596466D01*
X173851778Y-100752991D01*
X173829183Y-100780523D01*
X173739186Y-100890186D01*
X173637729Y-100973448D01*
X173601991Y-101002778D01*
X173445466Y-101086443D01*
X173275627Y-101137963D01*
X173209442Y-101144482D01*
X173143260Y-101151000D01*
X172804740Y-101151000D01*
X172738558Y-101144482D01*
X172672373Y-101137963D01*
X172502534Y-101086443D01*
X172346009Y-101002778D01*
X172310271Y-100973448D01*
X172208814Y-100890186D01*
X172118817Y-100780523D01*
X172096222Y-100752991D01*
X172012557Y-100596466D01*
X171961037Y-100426627D01*
X171943641Y-100250000D01*
X171961037Y-100073373D01*
X172012557Y-99903534D01*
X172096222Y-99747009D01*
X172136753Y-99697622D01*
X172208814Y-99609814D01*
X172313046Y-99524274D01*
X172346009Y-99497222D01*
X172502534Y-99413557D01*
X172672373Y-99362037D01*
X172738557Y-99355519D01*
X172804740Y-99349000D01*
X173143260Y-99349000D01*
X173209442Y-99355518D01*
G37*
G36*
X143745442Y-99355518D02*
G01*
X143811627Y-99362037D01*
X143981466Y-99413557D01*
X144137991Y-99497222D01*
X144170954Y-99524274D01*
X144275186Y-99609814D01*
X144347247Y-99697622D01*
X144387778Y-99747009D01*
X144471443Y-99903534D01*
X144522963Y-100073373D01*
X144540359Y-100250000D01*
X144522963Y-100426627D01*
X144471443Y-100596466D01*
X144387778Y-100752991D01*
X144365183Y-100780523D01*
X144275186Y-100890186D01*
X144173729Y-100973448D01*
X144137991Y-101002778D01*
X143981466Y-101086443D01*
X143811627Y-101137963D01*
X143745442Y-101144482D01*
X143679260Y-101151000D01*
X143340740Y-101151000D01*
X143274558Y-101144482D01*
X143208373Y-101137963D01*
X143038534Y-101086443D01*
X142882009Y-101002778D01*
X142846271Y-100973448D01*
X142744814Y-100890186D01*
X142654817Y-100780523D01*
X142632222Y-100752991D01*
X142548557Y-100596466D01*
X142497037Y-100426627D01*
X142479641Y-100250000D01*
X142497037Y-100073373D01*
X142548557Y-99903534D01*
X142632222Y-99747009D01*
X142672753Y-99697622D01*
X142744814Y-99609814D01*
X142849046Y-99524274D01*
X142882009Y-99497222D01*
X143038534Y-99413557D01*
X143208373Y-99362037D01*
X143274557Y-99355519D01*
X143340740Y-99349000D01*
X143679260Y-99349000D01*
X143745442Y-99355518D01*
G37*
G36*
X165843442Y-96855518D02*
G01*
X165909627Y-96862037D01*
X166079466Y-96913557D01*
X166235991Y-96997222D01*
X166271729Y-97026552D01*
X166373186Y-97109814D01*
X166456448Y-97211271D01*
X166485778Y-97247009D01*
X166569443Y-97403534D01*
X166620963Y-97573373D01*
X166638359Y-97750000D01*
X166620963Y-97926627D01*
X166569443Y-98096466D01*
X166485778Y-98252991D01*
X166456448Y-98288729D01*
X166373186Y-98390186D01*
X166271729Y-98473448D01*
X166235991Y-98502778D01*
X166079466Y-98586443D01*
X165909627Y-98637963D01*
X165843443Y-98644481D01*
X165777260Y-98651000D01*
X165438740Y-98651000D01*
X165372557Y-98644481D01*
X165306373Y-98637963D01*
X165136534Y-98586443D01*
X164980009Y-98502778D01*
X164944271Y-98473448D01*
X164842814Y-98390186D01*
X164759552Y-98288729D01*
X164730222Y-98252991D01*
X164646557Y-98096466D01*
X164595037Y-97926627D01*
X164577641Y-97750000D01*
X164595037Y-97573373D01*
X164646557Y-97403534D01*
X164730222Y-97247009D01*
X164759552Y-97211271D01*
X164842814Y-97109814D01*
X164944271Y-97026552D01*
X164980009Y-96997222D01*
X165136534Y-96913557D01*
X165306373Y-96862037D01*
X165372557Y-96855519D01*
X165438740Y-96849000D01*
X165777260Y-96849000D01*
X165843442Y-96855518D01*
G37*
G36*
X180575442Y-96855518D02*
G01*
X180641627Y-96862037D01*
X180811466Y-96913557D01*
X180967991Y-96997222D01*
X181003729Y-97026552D01*
X181105186Y-97109814D01*
X181188448Y-97211271D01*
X181217778Y-97247009D01*
X181301443Y-97403534D01*
X181352963Y-97573373D01*
X181370359Y-97750000D01*
X181352963Y-97926627D01*
X181301443Y-98096466D01*
X181217778Y-98252991D01*
X181188448Y-98288729D01*
X181105186Y-98390186D01*
X181003729Y-98473448D01*
X180967991Y-98502778D01*
X180811466Y-98586443D01*
X180641627Y-98637963D01*
X180575443Y-98644481D01*
X180509260Y-98651000D01*
X180170740Y-98651000D01*
X180104557Y-98644481D01*
X180038373Y-98637963D01*
X179868534Y-98586443D01*
X179712009Y-98502778D01*
X179676271Y-98473448D01*
X179574814Y-98390186D01*
X179491552Y-98288729D01*
X179462222Y-98252991D01*
X179378557Y-98096466D01*
X179327037Y-97926627D01*
X179309641Y-97750000D01*
X179327037Y-97573373D01*
X179378557Y-97403534D01*
X179462222Y-97247009D01*
X179491552Y-97211271D01*
X179574814Y-97109814D01*
X179676271Y-97026552D01*
X179712009Y-96997222D01*
X179868534Y-96913557D01*
X180038373Y-96862037D01*
X180104557Y-96855519D01*
X180170740Y-96849000D01*
X180509260Y-96849000D01*
X180575442Y-96855518D01*
G37*
G36*
X173209442Y-96855518D02*
G01*
X173275627Y-96862037D01*
X173445466Y-96913557D01*
X173601991Y-96997222D01*
X173637729Y-97026552D01*
X173739186Y-97109814D01*
X173822448Y-97211271D01*
X173851778Y-97247009D01*
X173935443Y-97403534D01*
X173986963Y-97573373D01*
X174004359Y-97750000D01*
X173986963Y-97926627D01*
X173935443Y-98096466D01*
X173851778Y-98252991D01*
X173822448Y-98288729D01*
X173739186Y-98390186D01*
X173637729Y-98473448D01*
X173601991Y-98502778D01*
X173445466Y-98586443D01*
X173275627Y-98637963D01*
X173209443Y-98644481D01*
X173143260Y-98651000D01*
X172804740Y-98651000D01*
X172738557Y-98644481D01*
X172672373Y-98637963D01*
X172502534Y-98586443D01*
X172346009Y-98502778D01*
X172310271Y-98473448D01*
X172208814Y-98390186D01*
X172125552Y-98288729D01*
X172096222Y-98252991D01*
X172012557Y-98096466D01*
X171961037Y-97926627D01*
X171943641Y-97750000D01*
X171961037Y-97573373D01*
X172012557Y-97403534D01*
X172096222Y-97247009D01*
X172125552Y-97211271D01*
X172208814Y-97109814D01*
X172310271Y-97026552D01*
X172346009Y-96997222D01*
X172502534Y-96913557D01*
X172672373Y-96862037D01*
X172738557Y-96855519D01*
X172804740Y-96849000D01*
X173143260Y-96849000D01*
X173209442Y-96855518D01*
G37*
G36*
X151111442Y-96855518D02*
G01*
X151177627Y-96862037D01*
X151347466Y-96913557D01*
X151503991Y-96997222D01*
X151539729Y-97026552D01*
X151641186Y-97109814D01*
X151724448Y-97211271D01*
X151753778Y-97247009D01*
X151837443Y-97403534D01*
X151888963Y-97573373D01*
X151906359Y-97750000D01*
X151888963Y-97926627D01*
X151837443Y-98096466D01*
X151753778Y-98252991D01*
X151724448Y-98288729D01*
X151641186Y-98390186D01*
X151539729Y-98473448D01*
X151503991Y-98502778D01*
X151347466Y-98586443D01*
X151177627Y-98637963D01*
X151111443Y-98644481D01*
X151045260Y-98651000D01*
X150706740Y-98651000D01*
X150640557Y-98644481D01*
X150574373Y-98637963D01*
X150404534Y-98586443D01*
X150248009Y-98502778D01*
X150212271Y-98473448D01*
X150110814Y-98390186D01*
X150027552Y-98288729D01*
X149998222Y-98252991D01*
X149914557Y-98096466D01*
X149863037Y-97926627D01*
X149845641Y-97750000D01*
X149863037Y-97573373D01*
X149914557Y-97403534D01*
X149998222Y-97247009D01*
X150027552Y-97211271D01*
X150110814Y-97109814D01*
X150212271Y-97026552D01*
X150248009Y-96997222D01*
X150404534Y-96913557D01*
X150574373Y-96862037D01*
X150640557Y-96855519D01*
X150706740Y-96849000D01*
X151045260Y-96849000D01*
X151111442Y-96855518D01*
G37*
G36*
X143745442Y-96855518D02*
G01*
X143811627Y-96862037D01*
X143981466Y-96913557D01*
X144137991Y-96997222D01*
X144173729Y-97026552D01*
X144275186Y-97109814D01*
X144358448Y-97211271D01*
X144387778Y-97247009D01*
X144471443Y-97403534D01*
X144522963Y-97573373D01*
X144540359Y-97750000D01*
X144522963Y-97926627D01*
X144471443Y-98096466D01*
X144387778Y-98252991D01*
X144358448Y-98288729D01*
X144275186Y-98390186D01*
X144173729Y-98473448D01*
X144137991Y-98502778D01*
X143981466Y-98586443D01*
X143811627Y-98637963D01*
X143745443Y-98644481D01*
X143679260Y-98651000D01*
X143340740Y-98651000D01*
X143274557Y-98644481D01*
X143208373Y-98637963D01*
X143038534Y-98586443D01*
X142882009Y-98502778D01*
X142846271Y-98473448D01*
X142744814Y-98390186D01*
X142661552Y-98288729D01*
X142632222Y-98252991D01*
X142548557Y-98096466D01*
X142497037Y-97926627D01*
X142479641Y-97750000D01*
X142497037Y-97573373D01*
X142548557Y-97403534D01*
X142632222Y-97247009D01*
X142661552Y-97211271D01*
X142744814Y-97109814D01*
X142846271Y-97026552D01*
X142882009Y-96997222D01*
X143038534Y-96913557D01*
X143208373Y-96862037D01*
X143274557Y-96855519D01*
X143340740Y-96849000D01*
X143679260Y-96849000D01*
X143745442Y-96855518D01*
G37*
G36*
X136379442Y-96855518D02*
G01*
X136445627Y-96862037D01*
X136615466Y-96913557D01*
X136771991Y-96997222D01*
X136807729Y-97026552D01*
X136909186Y-97109814D01*
X136992448Y-97211271D01*
X137021778Y-97247009D01*
X137105443Y-97403534D01*
X137156963Y-97573373D01*
X137174359Y-97750000D01*
X137156963Y-97926627D01*
X137105443Y-98096466D01*
X137021778Y-98252991D01*
X136992448Y-98288729D01*
X136909186Y-98390186D01*
X136807729Y-98473448D01*
X136771991Y-98502778D01*
X136615466Y-98586443D01*
X136445627Y-98637963D01*
X136379443Y-98644481D01*
X136313260Y-98651000D01*
X135974740Y-98651000D01*
X135908557Y-98644481D01*
X135842373Y-98637963D01*
X135672534Y-98586443D01*
X135516009Y-98502778D01*
X135480271Y-98473448D01*
X135378814Y-98390186D01*
X135295552Y-98288729D01*
X135266222Y-98252991D01*
X135182557Y-98096466D01*
X135131037Y-97926627D01*
X135113641Y-97750000D01*
X135131037Y-97573373D01*
X135182557Y-97403534D01*
X135266222Y-97247009D01*
X135295552Y-97211271D01*
X135378814Y-97109814D01*
X135480271Y-97026552D01*
X135516009Y-96997222D01*
X135672534Y-96913557D01*
X135842373Y-96862037D01*
X135908557Y-96855519D01*
X135974740Y-96849000D01*
X136313260Y-96849000D01*
X136379442Y-96855518D01*
G37*
G36*
X158477442Y-96855518D02*
G01*
X158543627Y-96862037D01*
X158713466Y-96913557D01*
X158869991Y-96997222D01*
X158905729Y-97026552D01*
X159007186Y-97109814D01*
X159090448Y-97211271D01*
X159119778Y-97247009D01*
X159203443Y-97403534D01*
X159254963Y-97573373D01*
X159272359Y-97750000D01*
X159254963Y-97926627D01*
X159203443Y-98096466D01*
X159119778Y-98252991D01*
X159090448Y-98288729D01*
X159007186Y-98390186D01*
X158905729Y-98473448D01*
X158869991Y-98502778D01*
X158713466Y-98586443D01*
X158543627Y-98637963D01*
X158477443Y-98644481D01*
X158411260Y-98651000D01*
X158072740Y-98651000D01*
X158006557Y-98644481D01*
X157940373Y-98637963D01*
X157770534Y-98586443D01*
X157614009Y-98502778D01*
X157578271Y-98473448D01*
X157476814Y-98390186D01*
X157393552Y-98288729D01*
X157364222Y-98252991D01*
X157280557Y-98096466D01*
X157229037Y-97926627D01*
X157211641Y-97750000D01*
X157229037Y-97573373D01*
X157280557Y-97403534D01*
X157364222Y-97247009D01*
X157393552Y-97211271D01*
X157476814Y-97109814D01*
X157578271Y-97026552D01*
X157614009Y-96997222D01*
X157770534Y-96913557D01*
X157940373Y-96862037D01*
X158006557Y-96855519D01*
X158072740Y-96849000D01*
X158411260Y-96849000D01*
X158477442Y-96855518D01*
G37*
G36*
X129013442Y-96855518D02*
G01*
X129079627Y-96862037D01*
X129249466Y-96913557D01*
X129405991Y-96997222D01*
X129441729Y-97026552D01*
X129543186Y-97109814D01*
X129626448Y-97211271D01*
X129655778Y-97247009D01*
X129739443Y-97403534D01*
X129790963Y-97573373D01*
X129808359Y-97750000D01*
X129790963Y-97926627D01*
X129739443Y-98096466D01*
X129655778Y-98252991D01*
X129626448Y-98288729D01*
X129543186Y-98390186D01*
X129441729Y-98473448D01*
X129405991Y-98502778D01*
X129249466Y-98586443D01*
X129079627Y-98637963D01*
X129013443Y-98644481D01*
X128947260Y-98651000D01*
X128608740Y-98651000D01*
X128542557Y-98644481D01*
X128476373Y-98637963D01*
X128306534Y-98586443D01*
X128150009Y-98502778D01*
X128114271Y-98473448D01*
X128012814Y-98390186D01*
X127929552Y-98288729D01*
X127900222Y-98252991D01*
X127816557Y-98096466D01*
X127765037Y-97926627D01*
X127747641Y-97750000D01*
X127765037Y-97573373D01*
X127816557Y-97403534D01*
X127900222Y-97247009D01*
X127929552Y-97211271D01*
X128012814Y-97109814D01*
X128114271Y-97026552D01*
X128150009Y-96997222D01*
X128306534Y-96913557D01*
X128476373Y-96862037D01*
X128542557Y-96855519D01*
X128608740Y-96849000D01*
X128947260Y-96849000D01*
X129013442Y-96855518D01*
G37*
G36*
X122701000Y-98063000D02*
G01*
X118599000Y-98063000D01*
X118599000Y-93961000D01*
X122701000Y-93961000D01*
X122701000Y-98063000D01*
G37*
G36*
X173857600Y-94352989D02*
G01*
X173890652Y-94363015D01*
X173921103Y-94379292D01*
X173947799Y-94401201D01*
X173969708Y-94427897D01*
X173985985Y-94458348D01*
X173996011Y-94491400D01*
X174000000Y-94531903D01*
X174000000Y-95968097D01*
X173996011Y-96008600D01*
X173985985Y-96041652D01*
X173969708Y-96072103D01*
X173947799Y-96098799D01*
X173921103Y-96120708D01*
X173890652Y-96136985D01*
X173857600Y-96147011D01*
X173817097Y-96151000D01*
X172130903Y-96151000D01*
X172090400Y-96147011D01*
X172057348Y-96136985D01*
X172026897Y-96120708D01*
X172000201Y-96098799D01*
X171978292Y-96072103D01*
X171962015Y-96041652D01*
X171951989Y-96008600D01*
X171948000Y-95968097D01*
X171948000Y-94531903D01*
X171951989Y-94491400D01*
X171962015Y-94458348D01*
X171978292Y-94427897D01*
X172000201Y-94401201D01*
X172026897Y-94379292D01*
X172057348Y-94363015D01*
X172090400Y-94352989D01*
X172130903Y-94349000D01*
X173817097Y-94349000D01*
X173857600Y-94352989D01*
G37*
G36*
X151759600Y-94352989D02*
G01*
X151792652Y-94363015D01*
X151823103Y-94379292D01*
X151849799Y-94401201D01*
X151871708Y-94427897D01*
X151887985Y-94458348D01*
X151898011Y-94491400D01*
X151902000Y-94531903D01*
X151902000Y-95968097D01*
X151898011Y-96008600D01*
X151887985Y-96041652D01*
X151871708Y-96072103D01*
X151849799Y-96098799D01*
X151823103Y-96120708D01*
X151792652Y-96136985D01*
X151759600Y-96147011D01*
X151719097Y-96151000D01*
X150032903Y-96151000D01*
X149992400Y-96147011D01*
X149959348Y-96136985D01*
X149928897Y-96120708D01*
X149902201Y-96098799D01*
X149880292Y-96072103D01*
X149864015Y-96041652D01*
X149853989Y-96008600D01*
X149850000Y-95968097D01*
X149850000Y-94531903D01*
X149853989Y-94491400D01*
X149864015Y-94458348D01*
X149880292Y-94427897D01*
X149902201Y-94401201D01*
X149928897Y-94379292D01*
X149959348Y-94363015D01*
X149992400Y-94352989D01*
X150032903Y-94349000D01*
X151719097Y-94349000D01*
X151759600Y-94352989D01*
G37*
G36*
X159125600Y-94352989D02*
G01*
X159158652Y-94363015D01*
X159189103Y-94379292D01*
X159215799Y-94401201D01*
X159237708Y-94427897D01*
X159253985Y-94458348D01*
X159264011Y-94491400D01*
X159268000Y-94531903D01*
X159268000Y-95968097D01*
X159264011Y-96008600D01*
X159253985Y-96041652D01*
X159237708Y-96072103D01*
X159215799Y-96098799D01*
X159189103Y-96120708D01*
X159158652Y-96136985D01*
X159125600Y-96147011D01*
X159085097Y-96151000D01*
X157398903Y-96151000D01*
X157358400Y-96147011D01*
X157325348Y-96136985D01*
X157294897Y-96120708D01*
X157268201Y-96098799D01*
X157246292Y-96072103D01*
X157230015Y-96041652D01*
X157219989Y-96008600D01*
X157216000Y-95968097D01*
X157216000Y-94531903D01*
X157219989Y-94491400D01*
X157230015Y-94458348D01*
X157246292Y-94427897D01*
X157268201Y-94401201D01*
X157294897Y-94379292D01*
X157325348Y-94363015D01*
X157358400Y-94352989D01*
X157398903Y-94349000D01*
X159085097Y-94349000D01*
X159125600Y-94352989D01*
G37*
G36*
X137027600Y-94352989D02*
G01*
X137060652Y-94363015D01*
X137091103Y-94379292D01*
X137117799Y-94401201D01*
X137139708Y-94427897D01*
X137155985Y-94458348D01*
X137166011Y-94491400D01*
X137170000Y-94531903D01*
X137170000Y-95968097D01*
X137166011Y-96008600D01*
X137155985Y-96041652D01*
X137139708Y-96072103D01*
X137117799Y-96098799D01*
X137091103Y-96120708D01*
X137060652Y-96136985D01*
X137027600Y-96147011D01*
X136987097Y-96151000D01*
X135300903Y-96151000D01*
X135260400Y-96147011D01*
X135227348Y-96136985D01*
X135196897Y-96120708D01*
X135170201Y-96098799D01*
X135148292Y-96072103D01*
X135132015Y-96041652D01*
X135121989Y-96008600D01*
X135118000Y-95968097D01*
X135118000Y-94531903D01*
X135121989Y-94491400D01*
X135132015Y-94458348D01*
X135148292Y-94427897D01*
X135170201Y-94401201D01*
X135196897Y-94379292D01*
X135227348Y-94363015D01*
X135260400Y-94352989D01*
X135300903Y-94349000D01*
X136987097Y-94349000D01*
X137027600Y-94352989D01*
G37*
G36*
X144393600Y-94352989D02*
G01*
X144426652Y-94363015D01*
X144457103Y-94379292D01*
X144483799Y-94401201D01*
X144505708Y-94427897D01*
X144521985Y-94458348D01*
X144532011Y-94491400D01*
X144536000Y-94531903D01*
X144536000Y-95968097D01*
X144532011Y-96008600D01*
X144521985Y-96041652D01*
X144505708Y-96072103D01*
X144483799Y-96098799D01*
X144457103Y-96120708D01*
X144426652Y-96136985D01*
X144393600Y-96147011D01*
X144353097Y-96151000D01*
X142666903Y-96151000D01*
X142626400Y-96147011D01*
X142593348Y-96136985D01*
X142562897Y-96120708D01*
X142536201Y-96098799D01*
X142514292Y-96072103D01*
X142498015Y-96041652D01*
X142487989Y-96008600D01*
X142484000Y-95968097D01*
X142484000Y-94531903D01*
X142487989Y-94491400D01*
X142498015Y-94458348D01*
X142514292Y-94427897D01*
X142536201Y-94401201D01*
X142562897Y-94379292D01*
X142593348Y-94363015D01*
X142626400Y-94352989D01*
X142666903Y-94349000D01*
X144353097Y-94349000D01*
X144393600Y-94352989D01*
G37*
G36*
X181223600Y-94352989D02*
G01*
X181256652Y-94363015D01*
X181287103Y-94379292D01*
X181313799Y-94401201D01*
X181335708Y-94427897D01*
X181351985Y-94458348D01*
X181362011Y-94491400D01*
X181366000Y-94531903D01*
X181366000Y-95968097D01*
X181362011Y-96008600D01*
X181351985Y-96041652D01*
X181335708Y-96072103D01*
X181313799Y-96098799D01*
X181287103Y-96120708D01*
X181256652Y-96136985D01*
X181223600Y-96147011D01*
X181183097Y-96151000D01*
X179496903Y-96151000D01*
X179456400Y-96147011D01*
X179423348Y-96136985D01*
X179392897Y-96120708D01*
X179366201Y-96098799D01*
X179344292Y-96072103D01*
X179328015Y-96041652D01*
X179317989Y-96008600D01*
X179314000Y-95968097D01*
X179314000Y-94531903D01*
X179317989Y-94491400D01*
X179328015Y-94458348D01*
X179344292Y-94427897D01*
X179366201Y-94401201D01*
X179392897Y-94379292D01*
X179423348Y-94363015D01*
X179456400Y-94352989D01*
X179496903Y-94349000D01*
X181183097Y-94349000D01*
X181223600Y-94352989D01*
G37*
G36*
X166491600Y-94352989D02*
G01*
X166524652Y-94363015D01*
X166555103Y-94379292D01*
X166581799Y-94401201D01*
X166603708Y-94427897D01*
X166619985Y-94458348D01*
X166630011Y-94491400D01*
X166634000Y-94531903D01*
X166634000Y-95968097D01*
X166630011Y-96008600D01*
X166619985Y-96041652D01*
X166603708Y-96072103D01*
X166581799Y-96098799D01*
X166555103Y-96120708D01*
X166524652Y-96136985D01*
X166491600Y-96147011D01*
X166451097Y-96151000D01*
X164764903Y-96151000D01*
X164724400Y-96147011D01*
X164691348Y-96136985D01*
X164660897Y-96120708D01*
X164634201Y-96098799D01*
X164612292Y-96072103D01*
X164596015Y-96041652D01*
X164585989Y-96008600D01*
X164582000Y-95968097D01*
X164582000Y-94531903D01*
X164585989Y-94491400D01*
X164596015Y-94458348D01*
X164612292Y-94427897D01*
X164634201Y-94401201D01*
X164660897Y-94379292D01*
X164691348Y-94363015D01*
X164724400Y-94352989D01*
X164764903Y-94349000D01*
X166451097Y-94349000D01*
X166491600Y-94352989D01*
G37*
G36*
X129661600Y-94352989D02*
G01*
X129694652Y-94363015D01*
X129725103Y-94379292D01*
X129751799Y-94401201D01*
X129773708Y-94427897D01*
X129789985Y-94458348D01*
X129800011Y-94491400D01*
X129804000Y-94531903D01*
X129804000Y-95968097D01*
X129800011Y-96008600D01*
X129789985Y-96041652D01*
X129773708Y-96072103D01*
X129751799Y-96098799D01*
X129725103Y-96120708D01*
X129694652Y-96136985D01*
X129661600Y-96147011D01*
X129621097Y-96151000D01*
X127934903Y-96151000D01*
X127894400Y-96147011D01*
X127861348Y-96136985D01*
X127830897Y-96120708D01*
X127804201Y-96098799D01*
X127782292Y-96072103D01*
X127766015Y-96041652D01*
X127755989Y-96008600D01*
X127752000Y-95968097D01*
X127752000Y-94531903D01*
X127755989Y-94491400D01*
X127766015Y-94458348D01*
X127782292Y-94427897D01*
X127804201Y-94401201D01*
X127830897Y-94379292D01*
X127861348Y-94363015D01*
X127894400Y-94352989D01*
X127934903Y-94349000D01*
X129621097Y-94349000D01*
X129661600Y-94352989D01*
G37*
G36*
X122701000Y-91713000D02*
G01*
X118599000Y-91713000D01*
X118599000Y-87611000D01*
X122701000Y-87611000D01*
X122701000Y-91713000D01*
G37*
G36*
X138001000Y-91701000D02*
G01*
X136399000Y-91701000D01*
X136399000Y-89599000D01*
X138001000Y-89599000D01*
X138001000Y-91701000D01*
G37*
G36*
X140301000Y-91701000D02*
G01*
X138699000Y-91701000D01*
X138699000Y-89599000D01*
X140301000Y-89599000D01*
X140301000Y-91701000D01*
G37*
G36*
X142601000Y-91701000D02*
G01*
X140999000Y-91701000D01*
X140999000Y-89599000D01*
X142601000Y-89599000D01*
X142601000Y-91701000D01*
G37*
G36*
X146629591Y-90478085D02*
G01*
X146663569Y-90488393D01*
X146694890Y-90505134D01*
X146722339Y-90527661D01*
X146744866Y-90555110D01*
X146761607Y-90586431D01*
X146771915Y-90620409D01*
X146776000Y-90661890D01*
X146776000Y-91338110D01*
X146771915Y-91379591D01*
X146761607Y-91413569D01*
X146744866Y-91444890D01*
X146722339Y-91472339D01*
X146694890Y-91494866D01*
X146663569Y-91511607D01*
X146629591Y-91521915D01*
X146588110Y-91526000D01*
X145986890Y-91526000D01*
X145945409Y-91521915D01*
X145911431Y-91511607D01*
X145880110Y-91494866D01*
X145852661Y-91472339D01*
X145830134Y-91444890D01*
X145813393Y-91413569D01*
X145803085Y-91379591D01*
X145799000Y-91338110D01*
X145799000Y-90661890D01*
X145803085Y-90620409D01*
X145813393Y-90586431D01*
X145830134Y-90555110D01*
X145852661Y-90527661D01*
X145880110Y-90505134D01*
X145911431Y-90488393D01*
X145945409Y-90478085D01*
X145986890Y-90474000D01*
X146588110Y-90474000D01*
X146629591Y-90478085D01*
G37*
G36*
X133054591Y-90478085D02*
G01*
X133088569Y-90488393D01*
X133119890Y-90505134D01*
X133147339Y-90527661D01*
X133169866Y-90555110D01*
X133186607Y-90586431D01*
X133196915Y-90620409D01*
X133201000Y-90661890D01*
X133201000Y-91338110D01*
X133196915Y-91379591D01*
X133186607Y-91413569D01*
X133169866Y-91444890D01*
X133147339Y-91472339D01*
X133119890Y-91494866D01*
X133088569Y-91511607D01*
X133054591Y-91521915D01*
X133013110Y-91526000D01*
X132411890Y-91526000D01*
X132370409Y-91521915D01*
X132336431Y-91511607D01*
X132305110Y-91494866D01*
X132277661Y-91472339D01*
X132255134Y-91444890D01*
X132238393Y-91413569D01*
X132228085Y-91379591D01*
X132224000Y-91338110D01*
X132224000Y-90661890D01*
X132228085Y-90620409D01*
X132238393Y-90586431D01*
X132255134Y-90555110D01*
X132277661Y-90527661D01*
X132305110Y-90505134D01*
X132336431Y-90488393D01*
X132370409Y-90478085D01*
X132411890Y-90474000D01*
X133013110Y-90474000D01*
X133054591Y-90478085D01*
G37*
G36*
X145054591Y-90478085D02*
G01*
X145088569Y-90488393D01*
X145119890Y-90505134D01*
X145147339Y-90527661D01*
X145169866Y-90555110D01*
X145186607Y-90586431D01*
X145196915Y-90620409D01*
X145201000Y-90661890D01*
X145201000Y-91338110D01*
X145196915Y-91379591D01*
X145186607Y-91413569D01*
X145169866Y-91444890D01*
X145147339Y-91472339D01*
X145119890Y-91494866D01*
X145088569Y-91511607D01*
X145054591Y-91521915D01*
X145013110Y-91526000D01*
X144411890Y-91526000D01*
X144370409Y-91521915D01*
X144336431Y-91511607D01*
X144305110Y-91494866D01*
X144277661Y-91472339D01*
X144255134Y-91444890D01*
X144238393Y-91413569D01*
X144228085Y-91379591D01*
X144224000Y-91338110D01*
X144224000Y-90661890D01*
X144228085Y-90620409D01*
X144238393Y-90586431D01*
X144255134Y-90555110D01*
X144277661Y-90527661D01*
X144305110Y-90505134D01*
X144336431Y-90488393D01*
X144370409Y-90478085D01*
X144411890Y-90474000D01*
X145013110Y-90474000D01*
X145054591Y-90478085D01*
G37*
G36*
X134629591Y-90478085D02*
G01*
X134663569Y-90488393D01*
X134694890Y-90505134D01*
X134722339Y-90527661D01*
X134744866Y-90555110D01*
X134761607Y-90586431D01*
X134771915Y-90620409D01*
X134776000Y-90661890D01*
X134776000Y-91338110D01*
X134771915Y-91379591D01*
X134761607Y-91413569D01*
X134744866Y-91444890D01*
X134722339Y-91472339D01*
X134694890Y-91494866D01*
X134663569Y-91511607D01*
X134629591Y-91521915D01*
X134588110Y-91526000D01*
X133986890Y-91526000D01*
X133945409Y-91521915D01*
X133911431Y-91511607D01*
X133880110Y-91494866D01*
X133852661Y-91472339D01*
X133830134Y-91444890D01*
X133813393Y-91413569D01*
X133803085Y-91379591D01*
X133799000Y-91338110D01*
X133799000Y-90661890D01*
X133803085Y-90620409D01*
X133813393Y-90586431D01*
X133830134Y-90555110D01*
X133852661Y-90527661D01*
X133880110Y-90505134D01*
X133911431Y-90488393D01*
X133945409Y-90478085D01*
X133986890Y-90474000D01*
X134588110Y-90474000D01*
X134629591Y-90478085D01*
G37*
G36*
X182124604Y-90136347D02*
G01*
X182161144Y-90147432D01*
X182194821Y-90165433D01*
X182224341Y-90189659D01*
X182248567Y-90219179D01*
X182266568Y-90252856D01*
X182277653Y-90289396D01*
X182282000Y-90333538D01*
X182282000Y-91282462D01*
X182277653Y-91326604D01*
X182266568Y-91363144D01*
X182248567Y-91396821D01*
X182224341Y-91426341D01*
X182194821Y-91450567D01*
X182161144Y-91468568D01*
X182124604Y-91479653D01*
X182080462Y-91484000D01*
X180631538Y-91484000D01*
X180587396Y-91479653D01*
X180550856Y-91468568D01*
X180517179Y-91450567D01*
X180487659Y-91426341D01*
X180463433Y-91396821D01*
X180445432Y-91363144D01*
X180434347Y-91326604D01*
X180430000Y-91282462D01*
X180430000Y-90333538D01*
X180434347Y-90289396D01*
X180445432Y-90252856D01*
X180463433Y-90219179D01*
X180487659Y-90189659D01*
X180517179Y-90165433D01*
X180550856Y-90147432D01*
X180587396Y-90136347D01*
X180631538Y-90132000D01*
X182080462Y-90132000D01*
X182124604Y-90136347D01*
G37*
G36*
X179584604Y-90136347D02*
G01*
X179621144Y-90147432D01*
X179654821Y-90165433D01*
X179684341Y-90189659D01*
X179708567Y-90219179D01*
X179726568Y-90252856D01*
X179737653Y-90289396D01*
X179742000Y-90333538D01*
X179742000Y-91282462D01*
X179737653Y-91326604D01*
X179726568Y-91363144D01*
X179708567Y-91396821D01*
X179684341Y-91426341D01*
X179654821Y-91450567D01*
X179621144Y-91468568D01*
X179584604Y-91479653D01*
X179540462Y-91484000D01*
X178091538Y-91484000D01*
X178047396Y-91479653D01*
X178010856Y-91468568D01*
X177977179Y-91450567D01*
X177947659Y-91426341D01*
X177923433Y-91396821D01*
X177905432Y-91363144D01*
X177894347Y-91326604D01*
X177890000Y-91282462D01*
X177890000Y-90333538D01*
X177894347Y-90289396D01*
X177905432Y-90252856D01*
X177923433Y-90219179D01*
X177947659Y-90189659D01*
X177977179Y-90165433D01*
X178010856Y-90147432D01*
X178047396Y-90136347D01*
X178091538Y-90132000D01*
X179540462Y-90132000D01*
X179584604Y-90136347D01*
G37*
G36*
X171964604Y-90136347D02*
G01*
X172001144Y-90147432D01*
X172034821Y-90165433D01*
X172064341Y-90189659D01*
X172088567Y-90219179D01*
X172106568Y-90252856D01*
X172117653Y-90289396D01*
X172122000Y-90333538D01*
X172122000Y-91282462D01*
X172117653Y-91326604D01*
X172106568Y-91363144D01*
X172088567Y-91396821D01*
X172064341Y-91426341D01*
X172034821Y-91450567D01*
X172001144Y-91468568D01*
X171964604Y-91479653D01*
X171920462Y-91484000D01*
X170471538Y-91484000D01*
X170427396Y-91479653D01*
X170390856Y-91468568D01*
X170357179Y-91450567D01*
X170327659Y-91426341D01*
X170303433Y-91396821D01*
X170285432Y-91363144D01*
X170274347Y-91326604D01*
X170270000Y-91282462D01*
X170270000Y-90333538D01*
X170274347Y-90289396D01*
X170285432Y-90252856D01*
X170303433Y-90219179D01*
X170327659Y-90189659D01*
X170357179Y-90165433D01*
X170390856Y-90147432D01*
X170427396Y-90136347D01*
X170471538Y-90132000D01*
X171920462Y-90132000D01*
X171964604Y-90136347D01*
G37*
G36*
X177044604Y-90136347D02*
G01*
X177081144Y-90147432D01*
X177114821Y-90165433D01*
X177144341Y-90189659D01*
X177168567Y-90219179D01*
X177186568Y-90252856D01*
X177197653Y-90289396D01*
X177202000Y-90333538D01*
X177202000Y-91282462D01*
X177197653Y-91326604D01*
X177186568Y-91363144D01*
X177168567Y-91396821D01*
X177144341Y-91426341D01*
X177114821Y-91450567D01*
X177081144Y-91468568D01*
X177044604Y-91479653D01*
X177000462Y-91484000D01*
X175551538Y-91484000D01*
X175507396Y-91479653D01*
X175470856Y-91468568D01*
X175437179Y-91450567D01*
X175407659Y-91426341D01*
X175383433Y-91396821D01*
X175365432Y-91363144D01*
X175354347Y-91326604D01*
X175350000Y-91282462D01*
X175350000Y-90333538D01*
X175354347Y-90289396D01*
X175365432Y-90252856D01*
X175383433Y-90219179D01*
X175407659Y-90189659D01*
X175437179Y-90165433D01*
X175470856Y-90147432D01*
X175507396Y-90136347D01*
X175551538Y-90132000D01*
X177000462Y-90132000D01*
X177044604Y-90136347D01*
G37*
G36*
X174504604Y-90136347D02*
G01*
X174541144Y-90147432D01*
X174574821Y-90165433D01*
X174604341Y-90189659D01*
X174628567Y-90219179D01*
X174646568Y-90252856D01*
X174657653Y-90289396D01*
X174662000Y-90333538D01*
X174662000Y-91282462D01*
X174657653Y-91326604D01*
X174646568Y-91363144D01*
X174628567Y-91396821D01*
X174604341Y-91426341D01*
X174574821Y-91450567D01*
X174541144Y-91468568D01*
X174504604Y-91479653D01*
X174460462Y-91484000D01*
X173011538Y-91484000D01*
X172967396Y-91479653D01*
X172930856Y-91468568D01*
X172897179Y-91450567D01*
X172867659Y-91426341D01*
X172843433Y-91396821D01*
X172825432Y-91363144D01*
X172814347Y-91326604D01*
X172810000Y-91282462D01*
X172810000Y-90333538D01*
X172814347Y-90289396D01*
X172825432Y-90252856D01*
X172843433Y-90219179D01*
X172867659Y-90189659D01*
X172897179Y-90165433D01*
X172930856Y-90147432D01*
X172967396Y-90136347D01*
X173011538Y-90132000D01*
X174460462Y-90132000D01*
X174504604Y-90136347D01*
G37*
G36*
X160906000Y-89801000D02*
G01*
X159904000Y-89801000D01*
X159904000Y-87699000D01*
X160906000Y-87699000D01*
X160906000Y-89801000D01*
G37*
G36*
X154571000Y-89801000D02*
G01*
X153569000Y-89801000D01*
X153569000Y-87699000D01*
X154571000Y-87699000D01*
X154571000Y-89801000D01*
G37*
G36*
X155826000Y-89801000D02*
G01*
X154824000Y-89801000D01*
X154824000Y-87699000D01*
X155826000Y-87699000D01*
X155826000Y-89801000D01*
G37*
G36*
X157096000Y-89801000D02*
G01*
X156094000Y-89801000D01*
X156094000Y-87699000D01*
X157096000Y-87699000D01*
X157096000Y-89801000D01*
G37*
G36*
X158366000Y-89801000D02*
G01*
X157364000Y-89801000D01*
X157364000Y-87699000D01*
X158366000Y-87699000D01*
X158366000Y-89801000D01*
G37*
G36*
X159636000Y-89801000D02*
G01*
X158634000Y-89801000D01*
X158634000Y-87699000D01*
X159636000Y-87699000D01*
X159636000Y-89801000D01*
G37*
G36*
X153286000Y-89801000D02*
G01*
X152284000Y-89801000D01*
X152284000Y-87699000D01*
X153286000Y-87699000D01*
X153286000Y-89801000D01*
G37*
G36*
X163446000Y-89801000D02*
G01*
X162444000Y-89801000D01*
X162444000Y-87699000D01*
X163446000Y-87699000D01*
X163446000Y-89801000D01*
G37*
G36*
X164716000Y-89801000D02*
G01*
X163714000Y-89801000D01*
X163714000Y-87699000D01*
X164716000Y-87699000D01*
X164716000Y-89801000D01*
G37*
G36*
X162176000Y-89801000D02*
G01*
X161174000Y-89801000D01*
X161174000Y-87699000D01*
X162176000Y-87699000D01*
X162176000Y-89801000D01*
G37*
G36*
X129096958Y-84891586D02*
G01*
X129112983Y-84910123D01*
X129132317Y-84925178D01*
X129154216Y-84936172D01*
X129167000Y-84939695D01*
X129167000Y-84951139D01*
X129169402Y-84975525D01*
X129176515Y-84998974D01*
X129189879Y-85023224D01*
X129227450Y-85076449D01*
X129222553Y-85079066D01*
X129203611Y-85094611D01*
X129188066Y-85113553D01*
X129176515Y-85135164D01*
X129169402Y-85158613D01*
X129167000Y-85182999D01*
X129167000Y-86649201D01*
X129169402Y-86673587D01*
X129176515Y-86697036D01*
X129188066Y-86718647D01*
X129203611Y-86737589D01*
X129222553Y-86753134D01*
X129227026Y-86755525D01*
X129189596Y-86808996D01*
X129177579Y-86830351D01*
X129169959Y-86853640D01*
X129167000Y-86880678D01*
X129167000Y-86891644D01*
X129152590Y-86896015D01*
X129130979Y-86907566D01*
X129112037Y-86923111D01*
X129098022Y-86939817D01*
X128589596Y-87666140D01*
X128577579Y-87687495D01*
X128569959Y-87710784D01*
X128567000Y-87737822D01*
X128567000Y-89533500D01*
X127465000Y-89533500D01*
X127465000Y-87737822D01*
X127462598Y-87713436D01*
X127455485Y-87689987D01*
X127442404Y-87666140D01*
X126933978Y-86939817D01*
X126918026Y-86921216D01*
X126898752Y-86906085D01*
X126876896Y-86895005D01*
X126865000Y-86891676D01*
X126865000Y-86880678D01*
X126862598Y-86856292D01*
X126855485Y-86832843D01*
X126842404Y-86808996D01*
X126804974Y-86755525D01*
X126809447Y-86753134D01*
X126828389Y-86737589D01*
X126843934Y-86718647D01*
X126855485Y-86697036D01*
X126862598Y-86673587D01*
X126865000Y-86649201D01*
X126865000Y-85182999D01*
X126862598Y-85158613D01*
X126855485Y-85135164D01*
X126843934Y-85113553D01*
X126828389Y-85094611D01*
X126809447Y-85079066D01*
X126804550Y-85076449D01*
X126842121Y-85023224D01*
X126854222Y-85001916D01*
X126861933Y-84978657D01*
X126865000Y-84951139D01*
X126865000Y-84939765D01*
X126880757Y-84934985D01*
X126902368Y-84923434D01*
X126921310Y-84907889D01*
X126935042Y-84891586D01*
X127489574Y-84106000D01*
X128542426Y-84106000D01*
X129096958Y-84891586D01*
G37*
G36*
X130067000Y-89530000D02*
G01*
X128965000Y-89530000D01*
X128965000Y-87928000D01*
X130067000Y-87928000D01*
X130067000Y-89530000D01*
G37*
G36*
X127067000Y-89530000D02*
G01*
X125965000Y-89530000D01*
X125965000Y-87928000D01*
X127067000Y-87928000D01*
X127067000Y-89530000D01*
G37*
G36*
X171964604Y-87336347D02*
G01*
X172001144Y-87347432D01*
X172034821Y-87365433D01*
X172064341Y-87389659D01*
X172088567Y-87419179D01*
X172106568Y-87452856D01*
X172117653Y-87489396D01*
X172122000Y-87533538D01*
X172122000Y-88482462D01*
X172117653Y-88526602D01*
X172106568Y-88563144D01*
X172088567Y-88596821D01*
X172064341Y-88626341D01*
X172034821Y-88650567D01*
X172001144Y-88668568D01*
X171964604Y-88679653D01*
X171920462Y-88684000D01*
X170471538Y-88684000D01*
X170427396Y-88679653D01*
X170390856Y-88668568D01*
X170357179Y-88650567D01*
X170327659Y-88626341D01*
X170303433Y-88596821D01*
X170285432Y-88563144D01*
X170274347Y-88526602D01*
X170270000Y-88482462D01*
X170270000Y-87533538D01*
X170274347Y-87489396D01*
X170285432Y-87452856D01*
X170303433Y-87419179D01*
X170327659Y-87389659D01*
X170357179Y-87365433D01*
X170390856Y-87347432D01*
X170427396Y-87336347D01*
X170471538Y-87332000D01*
X171920462Y-87332000D01*
X171964604Y-87336347D01*
G37*
G36*
X174504604Y-87336347D02*
G01*
X174541144Y-87347432D01*
X174574821Y-87365433D01*
X174604341Y-87389659D01*
X174628567Y-87419179D01*
X174646568Y-87452856D01*
X174657653Y-87489396D01*
X174662000Y-87533538D01*
X174662000Y-88482462D01*
X174657653Y-88526602D01*
X174646568Y-88563144D01*
X174628567Y-88596821D01*
X174604341Y-88626341D01*
X174574821Y-88650567D01*
X174541144Y-88668568D01*
X174504604Y-88679653D01*
X174460462Y-88684000D01*
X173011538Y-88684000D01*
X172967396Y-88679653D01*
X172930856Y-88668568D01*
X172897179Y-88650567D01*
X172867659Y-88626341D01*
X172843433Y-88596821D01*
X172825432Y-88563144D01*
X172814347Y-88526602D01*
X172810000Y-88482462D01*
X172810000Y-87533538D01*
X172814347Y-87489396D01*
X172825432Y-87452856D01*
X172843433Y-87419179D01*
X172867659Y-87389659D01*
X172897179Y-87365433D01*
X172930856Y-87347432D01*
X172967396Y-87336347D01*
X173011538Y-87332000D01*
X174460462Y-87332000D01*
X174504604Y-87336347D01*
G37*
G36*
X177044604Y-87336347D02*
G01*
X177081144Y-87347432D01*
X177114821Y-87365433D01*
X177144341Y-87389659D01*
X177168567Y-87419179D01*
X177186568Y-87452856D01*
X177197653Y-87489396D01*
X177202000Y-87533538D01*
X177202000Y-88482462D01*
X177197653Y-88526602D01*
X177186568Y-88563144D01*
X177168567Y-88596821D01*
X177144341Y-88626341D01*
X177114821Y-88650567D01*
X177081144Y-88668568D01*
X177044604Y-88679653D01*
X177000462Y-88684000D01*
X175551538Y-88684000D01*
X175507396Y-88679653D01*
X175470856Y-88668568D01*
X175437179Y-88650567D01*
X175407659Y-88626341D01*
X175383433Y-88596821D01*
X175365432Y-88563144D01*
X175354347Y-88526602D01*
X175350000Y-88482462D01*
X175350000Y-87533538D01*
X175354347Y-87489396D01*
X175365432Y-87452856D01*
X175383433Y-87419179D01*
X175407659Y-87389659D01*
X175437179Y-87365433D01*
X175470856Y-87347432D01*
X175507396Y-87336347D01*
X175551538Y-87332000D01*
X177000462Y-87332000D01*
X177044604Y-87336347D01*
G37*
G36*
X179584604Y-87336347D02*
G01*
X179621144Y-87347432D01*
X179654821Y-87365433D01*
X179684341Y-87389659D01*
X179708567Y-87419179D01*
X179726568Y-87452856D01*
X179737653Y-87489396D01*
X179742000Y-87533538D01*
X179742000Y-88482462D01*
X179737653Y-88526602D01*
X179726568Y-88563144D01*
X179708567Y-88596821D01*
X179684341Y-88626341D01*
X179654821Y-88650567D01*
X179621144Y-88668568D01*
X179584604Y-88679653D01*
X179540462Y-88684000D01*
X178091538Y-88684000D01*
X178047396Y-88679653D01*
X178010856Y-88668568D01*
X177977179Y-88650567D01*
X177947659Y-88626341D01*
X177923433Y-88596821D01*
X177905432Y-88563144D01*
X177894347Y-88526602D01*
X177890000Y-88482462D01*
X177890000Y-87533538D01*
X177894347Y-87489396D01*
X177905432Y-87452856D01*
X177923433Y-87419179D01*
X177947659Y-87389659D01*
X177977179Y-87365433D01*
X178010856Y-87347432D01*
X178047396Y-87336347D01*
X178091538Y-87332000D01*
X179540462Y-87332000D01*
X179584604Y-87336347D01*
G37*
G36*
X182124604Y-87336347D02*
G01*
X182161144Y-87347432D01*
X182194821Y-87365433D01*
X182224341Y-87389659D01*
X182248567Y-87419179D01*
X182266568Y-87452856D01*
X182277653Y-87489396D01*
X182282000Y-87533538D01*
X182282000Y-88482462D01*
X182277653Y-88526602D01*
X182266568Y-88563144D01*
X182248567Y-88596821D01*
X182224341Y-88626341D01*
X182194821Y-88650567D01*
X182161144Y-88668568D01*
X182124604Y-88679653D01*
X182080462Y-88684000D01*
X180631538Y-88684000D01*
X180587396Y-88679653D01*
X180550856Y-88668568D01*
X180517179Y-88650567D01*
X180487659Y-88626341D01*
X180463433Y-88596821D01*
X180445432Y-88563144D01*
X180434347Y-88526602D01*
X180430000Y-88482462D01*
X180430000Y-87533538D01*
X180434347Y-87489396D01*
X180445432Y-87452856D01*
X180463433Y-87419179D01*
X180487659Y-87389659D01*
X180517179Y-87365433D01*
X180550856Y-87347432D01*
X180587396Y-87336347D01*
X180631538Y-87332000D01*
X182080462Y-87332000D01*
X182124604Y-87336347D01*
G37*
G36*
X146629591Y-87478085D02*
G01*
X146663569Y-87488393D01*
X146694890Y-87505134D01*
X146722339Y-87527661D01*
X146744866Y-87555110D01*
X146761607Y-87586431D01*
X146771915Y-87620409D01*
X146776000Y-87661890D01*
X146776000Y-88338110D01*
X146771915Y-88379591D01*
X146761607Y-88413569D01*
X146744866Y-88444890D01*
X146722339Y-88472339D01*
X146694890Y-88494866D01*
X146663569Y-88511607D01*
X146629591Y-88521915D01*
X146588110Y-88526000D01*
X145986890Y-88526000D01*
X145945409Y-88521915D01*
X145911431Y-88511607D01*
X145880110Y-88494866D01*
X145852661Y-88472339D01*
X145830134Y-88444890D01*
X145813393Y-88413569D01*
X145803085Y-88379591D01*
X145799000Y-88338110D01*
X145799000Y-87661890D01*
X145803085Y-87620409D01*
X145813393Y-87586431D01*
X145830134Y-87555110D01*
X145852661Y-87527661D01*
X145880110Y-87505134D01*
X145911431Y-87488393D01*
X145945409Y-87478085D01*
X145986890Y-87474000D01*
X146588110Y-87474000D01*
X146629591Y-87478085D01*
G37*
G36*
X134629591Y-87478085D02*
G01*
X134663569Y-87488393D01*
X134694890Y-87505134D01*
X134722339Y-87527661D01*
X134744866Y-87555110D01*
X134761607Y-87586431D01*
X134771915Y-87620409D01*
X134776000Y-87661890D01*
X134776000Y-88338110D01*
X134771915Y-88379591D01*
X134761607Y-88413569D01*
X134744866Y-88444890D01*
X134722339Y-88472339D01*
X134694890Y-88494866D01*
X134663569Y-88511607D01*
X134629591Y-88521915D01*
X134588110Y-88526000D01*
X133986890Y-88526000D01*
X133945409Y-88521915D01*
X133911431Y-88511607D01*
X133880110Y-88494866D01*
X133852661Y-88472339D01*
X133830134Y-88444890D01*
X133813393Y-88413569D01*
X133803085Y-88379591D01*
X133799000Y-88338110D01*
X133799000Y-87661890D01*
X133803085Y-87620409D01*
X133813393Y-87586431D01*
X133830134Y-87555110D01*
X133852661Y-87527661D01*
X133880110Y-87505134D01*
X133911431Y-87488393D01*
X133945409Y-87478085D01*
X133986890Y-87474000D01*
X134588110Y-87474000D01*
X134629591Y-87478085D01*
G37*
G36*
X133054591Y-87478085D02*
G01*
X133088569Y-87488393D01*
X133119890Y-87505134D01*
X133147339Y-87527661D01*
X133169866Y-87555110D01*
X133186607Y-87586431D01*
X133196915Y-87620409D01*
X133201000Y-87661890D01*
X133201000Y-88338110D01*
X133196915Y-88379591D01*
X133186607Y-88413569D01*
X133169866Y-88444890D01*
X133147339Y-88472339D01*
X133119890Y-88494866D01*
X133088569Y-88511607D01*
X133054591Y-88521915D01*
X133013110Y-88526000D01*
X132411890Y-88526000D01*
X132370409Y-88521915D01*
X132336431Y-88511607D01*
X132305110Y-88494866D01*
X132277661Y-88472339D01*
X132255134Y-88444890D01*
X132238393Y-88413569D01*
X132228085Y-88379591D01*
X132224000Y-88338110D01*
X132224000Y-87661890D01*
X132228085Y-87620409D01*
X132238393Y-87586431D01*
X132255134Y-87555110D01*
X132277661Y-87527661D01*
X132305110Y-87505134D01*
X132336431Y-87488393D01*
X132370409Y-87478085D01*
X132411890Y-87474000D01*
X133013110Y-87474000D01*
X133054591Y-87478085D01*
G37*
G36*
X145054591Y-87478085D02*
G01*
X145088569Y-87488393D01*
X145119890Y-87505134D01*
X145147339Y-87527661D01*
X145169866Y-87555110D01*
X145186607Y-87586431D01*
X145196915Y-87620409D01*
X145201000Y-87661890D01*
X145201000Y-88338110D01*
X145196915Y-88379591D01*
X145186607Y-88413569D01*
X145169866Y-88444890D01*
X145147339Y-88472339D01*
X145119890Y-88494866D01*
X145088569Y-88511607D01*
X145054591Y-88521915D01*
X145013110Y-88526000D01*
X144411890Y-88526000D01*
X144370409Y-88521915D01*
X144336431Y-88511607D01*
X144305110Y-88494866D01*
X144277661Y-88472339D01*
X144255134Y-88444890D01*
X144238393Y-88413569D01*
X144228085Y-88379591D01*
X144224000Y-88338110D01*
X144224000Y-87661890D01*
X144228085Y-87620409D01*
X144238393Y-87586431D01*
X144255134Y-87555110D01*
X144277661Y-87527661D01*
X144305110Y-87505134D01*
X144336431Y-87488393D01*
X144370409Y-87478085D01*
X144411890Y-87474000D01*
X145013110Y-87474000D01*
X145054591Y-87478085D01*
G37*
G36*
X168551000Y-87761000D02*
G01*
X166449000Y-87761000D01*
X166449000Y-86759000D01*
X168551000Y-86759000D01*
X168551000Y-87761000D01*
G37*
G36*
X150551000Y-87761000D02*
G01*
X148449000Y-87761000D01*
X148449000Y-86759000D01*
X150551000Y-86759000D01*
X150551000Y-87761000D01*
G37*
G36*
X172629591Y-85478085D02*
G01*
X172663569Y-85488393D01*
X172694890Y-85505134D01*
X172722339Y-85527661D01*
X172744866Y-85555110D01*
X172761607Y-85586431D01*
X172771915Y-85620409D01*
X172776000Y-85661890D01*
X172776000Y-86338110D01*
X172771915Y-86379591D01*
X172761607Y-86413569D01*
X172744866Y-86444890D01*
X172722339Y-86472339D01*
X172694890Y-86494866D01*
X172663569Y-86511607D01*
X172629591Y-86521915D01*
X172588110Y-86526000D01*
X171986890Y-86526000D01*
X171945409Y-86521915D01*
X171911431Y-86511607D01*
X171880110Y-86494866D01*
X171852661Y-86472339D01*
X171830134Y-86444890D01*
X171813393Y-86413569D01*
X171803085Y-86379591D01*
X171799000Y-86338110D01*
X171799000Y-85661890D01*
X171803085Y-85620409D01*
X171813393Y-85586431D01*
X171830134Y-85555110D01*
X171852661Y-85527661D01*
X171880110Y-85505134D01*
X171911431Y-85488393D01*
X171945409Y-85478085D01*
X171986890Y-85474000D01*
X172588110Y-85474000D01*
X172629591Y-85478085D01*
G37*
G36*
X171054591Y-85478085D02*
G01*
X171088569Y-85488393D01*
X171119890Y-85505134D01*
X171147339Y-85527661D01*
X171169866Y-85555110D01*
X171186607Y-85586431D01*
X171196915Y-85620409D01*
X171201000Y-85661890D01*
X171201000Y-86338110D01*
X171196915Y-86379591D01*
X171186607Y-86413569D01*
X171169866Y-86444890D01*
X171147339Y-86472339D01*
X171119890Y-86494866D01*
X171088569Y-86511607D01*
X171054591Y-86521915D01*
X171013110Y-86526000D01*
X170411890Y-86526000D01*
X170370409Y-86521915D01*
X170336431Y-86511607D01*
X170305110Y-86494866D01*
X170277661Y-86472339D01*
X170255134Y-86444890D01*
X170238393Y-86413569D01*
X170228085Y-86379591D01*
X170224000Y-86338110D01*
X170224000Y-85661890D01*
X170228085Y-85620409D01*
X170238393Y-85586431D01*
X170255134Y-85555110D01*
X170277661Y-85527661D01*
X170305110Y-85505134D01*
X170336431Y-85488393D01*
X170370409Y-85478085D01*
X170411890Y-85474000D01*
X171013110Y-85474000D01*
X171054591Y-85478085D01*
G37*
G36*
X168551000Y-86491000D02*
G01*
X166449000Y-86491000D01*
X166449000Y-85489000D01*
X168551000Y-85489000D01*
X168551000Y-86491000D01*
G37*
G36*
X150551000Y-86491000D02*
G01*
X148449000Y-86491000D01*
X148449000Y-85489000D01*
X150551000Y-85489000D01*
X150551000Y-86491000D01*
G37*
G36*
X121093000Y-85597000D02*
G01*
X119191000Y-85597000D01*
X119191000Y-82995000D01*
X121093000Y-82995000D01*
X121093000Y-85597000D01*
G37*
G36*
X144618604Y-83578347D02*
G01*
X144655144Y-83589432D01*
X144688821Y-83607433D01*
X144718341Y-83631659D01*
X144742567Y-83661179D01*
X144760568Y-83694856D01*
X144771653Y-83731396D01*
X144776000Y-83775538D01*
X144776000Y-85224462D01*
X144771653Y-85268604D01*
X144760568Y-85305144D01*
X144742567Y-85338821D01*
X144718341Y-85368341D01*
X144688821Y-85392567D01*
X144655144Y-85410568D01*
X144618604Y-85421653D01*
X144574462Y-85426000D01*
X143625538Y-85426000D01*
X143581396Y-85421653D01*
X143544856Y-85410568D01*
X143511179Y-85392567D01*
X143481659Y-85368341D01*
X143457433Y-85338821D01*
X143439432Y-85305144D01*
X143428347Y-85268604D01*
X143424000Y-85224462D01*
X143424000Y-83775538D01*
X143428347Y-83731396D01*
X143439432Y-83694856D01*
X143457433Y-83661179D01*
X143481659Y-83631659D01*
X143511179Y-83607433D01*
X143544856Y-83589432D01*
X143581396Y-83578347D01*
X143625538Y-83574000D01*
X144574462Y-83574000D01*
X144618604Y-83578347D01*
G37*
G36*
X135418604Y-83578347D02*
G01*
X135455144Y-83589432D01*
X135488821Y-83607433D01*
X135518341Y-83631659D01*
X135542567Y-83661179D01*
X135560568Y-83694856D01*
X135571653Y-83731396D01*
X135576000Y-83775538D01*
X135576000Y-85224462D01*
X135571653Y-85268604D01*
X135560568Y-85305144D01*
X135542567Y-85338821D01*
X135518341Y-85368341D01*
X135488821Y-85392567D01*
X135455144Y-85410568D01*
X135418604Y-85421653D01*
X135374462Y-85426000D01*
X134425538Y-85426000D01*
X134381396Y-85421653D01*
X134344856Y-85410568D01*
X134311179Y-85392567D01*
X134281659Y-85368341D01*
X134257433Y-85338821D01*
X134239432Y-85305144D01*
X134228347Y-85268604D01*
X134224000Y-85224462D01*
X134224000Y-83775538D01*
X134228347Y-83731396D01*
X134239432Y-83694856D01*
X134257433Y-83661179D01*
X134281659Y-83631659D01*
X134311179Y-83607433D01*
X134344856Y-83589432D01*
X134381396Y-83578347D01*
X134425538Y-83574000D01*
X135374462Y-83574000D01*
X135418604Y-83578347D01*
G37*
G36*
X132618604Y-83578347D02*
G01*
X132655144Y-83589432D01*
X132688821Y-83607433D01*
X132718341Y-83631659D01*
X132742567Y-83661179D01*
X132760568Y-83694856D01*
X132771653Y-83731396D01*
X132776000Y-83775538D01*
X132776000Y-85224462D01*
X132771653Y-85268604D01*
X132760568Y-85305144D01*
X132742567Y-85338821D01*
X132718341Y-85368341D01*
X132688821Y-85392567D01*
X132655144Y-85410568D01*
X132618604Y-85421653D01*
X132574462Y-85426000D01*
X131625538Y-85426000D01*
X131581396Y-85421653D01*
X131544856Y-85410568D01*
X131511179Y-85392567D01*
X131481659Y-85368341D01*
X131457433Y-85338821D01*
X131439432Y-85305144D01*
X131428347Y-85268604D01*
X131424000Y-85224462D01*
X131424000Y-83775538D01*
X131428347Y-83731396D01*
X131439432Y-83694856D01*
X131457433Y-83661179D01*
X131481659Y-83631659D01*
X131511179Y-83607433D01*
X131544856Y-83589432D01*
X131581396Y-83578347D01*
X131625538Y-83574000D01*
X132574462Y-83574000D01*
X132618604Y-83578347D01*
G37*
G36*
X147418604Y-83578347D02*
G01*
X147455144Y-83589432D01*
X147488821Y-83607433D01*
X147518341Y-83631659D01*
X147542567Y-83661179D01*
X147560568Y-83694856D01*
X147571653Y-83731396D01*
X147576000Y-83775538D01*
X147576000Y-85224462D01*
X147571653Y-85268604D01*
X147560568Y-85305144D01*
X147542567Y-85338821D01*
X147518341Y-85368341D01*
X147488821Y-85392567D01*
X147455144Y-85410568D01*
X147418604Y-85421653D01*
X147374462Y-85426000D01*
X146425538Y-85426000D01*
X146381396Y-85421653D01*
X146344856Y-85410568D01*
X146311179Y-85392567D01*
X146281659Y-85368341D01*
X146257433Y-85338821D01*
X146239432Y-85305144D01*
X146228347Y-85268604D01*
X146224000Y-85224462D01*
X146224000Y-83775538D01*
X146228347Y-83731396D01*
X146239432Y-83694856D01*
X146257433Y-83661179D01*
X146281659Y-83631659D01*
X146311179Y-83607433D01*
X146344856Y-83589432D01*
X146381396Y-83578347D01*
X146425538Y-83574000D01*
X147374462Y-83574000D01*
X147418604Y-83578347D01*
G37*
G36*
X141451000Y-85401000D02*
G01*
X137549000Y-85401000D01*
X137549000Y-83299000D01*
X141451000Y-83299000D01*
X141451000Y-85401000D01*
G37*
G36*
X168551000Y-85221000D02*
G01*
X166449000Y-85221000D01*
X166449000Y-84219000D01*
X168551000Y-84219000D01*
X168551000Y-85221000D01*
G37*
G36*
X150551000Y-85221000D02*
G01*
X148449000Y-85221000D01*
X148449000Y-84219000D01*
X150551000Y-84219000D01*
X150551000Y-85221000D01*
G37*
G36*
X177497928Y-84153764D02*
G01*
X177519009Y-84160160D01*
X177538445Y-84170548D01*
X177555476Y-84184524D01*
X177569452Y-84201555D01*
X177579840Y-84220991D01*
X177586236Y-84242072D01*
X177589000Y-84270140D01*
X177589000Y-84733860D01*
X177586236Y-84761928D01*
X177579840Y-84783009D01*
X177569452Y-84802445D01*
X177555476Y-84819476D01*
X177538445Y-84833452D01*
X177519009Y-84843840D01*
X177497928Y-84850236D01*
X177469860Y-84853000D01*
X175656140Y-84853000D01*
X175628072Y-84850236D01*
X175606991Y-84843840D01*
X175587555Y-84833452D01*
X175570524Y-84819476D01*
X175556548Y-84802445D01*
X175546160Y-84783009D01*
X175539764Y-84761928D01*
X175537000Y-84733860D01*
X175537000Y-84270140D01*
X175539764Y-84242072D01*
X175546160Y-84220991D01*
X175556548Y-84201555D01*
X175570524Y-84184524D01*
X175587555Y-84170548D01*
X175606991Y-84160160D01*
X175628072Y-84153764D01*
X175656140Y-84151000D01*
X177469860Y-84151000D01*
X177497928Y-84153764D01*
G37*
G36*
X182447928Y-84153764D02*
G01*
X182469009Y-84160160D01*
X182488445Y-84170548D01*
X182505476Y-84184524D01*
X182519452Y-84201555D01*
X182529840Y-84220991D01*
X182536236Y-84242072D01*
X182539000Y-84270140D01*
X182539000Y-84733860D01*
X182536236Y-84761928D01*
X182529840Y-84783009D01*
X182519452Y-84802445D01*
X182505476Y-84819476D01*
X182488445Y-84833452D01*
X182469009Y-84843840D01*
X182447928Y-84850236D01*
X182419860Y-84853000D01*
X180606140Y-84853000D01*
X180578072Y-84850236D01*
X180556991Y-84843840D01*
X180537555Y-84833452D01*
X180520524Y-84819476D01*
X180506548Y-84802445D01*
X180496160Y-84783009D01*
X180489764Y-84761928D01*
X180487000Y-84733860D01*
X180487000Y-84270140D01*
X180489764Y-84242072D01*
X180496160Y-84220991D01*
X180506548Y-84201555D01*
X180520524Y-84184524D01*
X180537555Y-84170548D01*
X180556991Y-84160160D01*
X180578072Y-84153764D01*
X180606140Y-84151000D01*
X182419860Y-84151000D01*
X182447928Y-84153764D01*
G37*
G36*
X172629591Y-83478085D02*
G01*
X172663569Y-83488393D01*
X172694890Y-83505134D01*
X172722339Y-83527661D01*
X172744866Y-83555110D01*
X172761607Y-83586431D01*
X172771915Y-83620409D01*
X172776000Y-83661890D01*
X172776000Y-84338110D01*
X172771915Y-84379591D01*
X172761607Y-84413569D01*
X172744866Y-84444890D01*
X172722339Y-84472339D01*
X172694890Y-84494866D01*
X172663569Y-84511607D01*
X172629591Y-84521915D01*
X172588110Y-84526000D01*
X171986890Y-84526000D01*
X171945409Y-84521915D01*
X171911431Y-84511607D01*
X171880110Y-84494866D01*
X171852661Y-84472339D01*
X171830134Y-84444890D01*
X171813393Y-84413569D01*
X171803085Y-84379591D01*
X171799000Y-84338110D01*
X171799000Y-83661890D01*
X171803085Y-83620409D01*
X171813393Y-83586431D01*
X171830134Y-83555110D01*
X171852661Y-83527661D01*
X171880110Y-83505134D01*
X171911431Y-83488393D01*
X171945409Y-83478085D01*
X171986890Y-83474000D01*
X172588110Y-83474000D01*
X172629591Y-83478085D01*
G37*
G36*
X171054591Y-83478085D02*
G01*
X171088569Y-83488393D01*
X171119890Y-83505134D01*
X171147339Y-83527661D01*
X171169866Y-83555110D01*
X171186607Y-83586431D01*
X171196915Y-83620409D01*
X171201000Y-83661890D01*
X171201000Y-84338110D01*
X171196915Y-84379591D01*
X171186607Y-84413569D01*
X171169866Y-84444890D01*
X171147339Y-84472339D01*
X171119890Y-84494866D01*
X171088569Y-84511607D01*
X171054591Y-84521915D01*
X171013110Y-84526000D01*
X170411890Y-84526000D01*
X170370409Y-84521915D01*
X170336431Y-84511607D01*
X170305110Y-84494866D01*
X170277661Y-84472339D01*
X170255134Y-84444890D01*
X170238393Y-84413569D01*
X170228085Y-84379591D01*
X170224000Y-84338110D01*
X170224000Y-83661890D01*
X170228085Y-83620409D01*
X170238393Y-83586431D01*
X170255134Y-83555110D01*
X170277661Y-83527661D01*
X170305110Y-83505134D01*
X170336431Y-83488393D01*
X170370409Y-83478085D01*
X170411890Y-83474000D01*
X171013110Y-83474000D01*
X171054591Y-83478085D01*
G37*
G36*
X168551000Y-83951000D02*
G01*
X166449000Y-83951000D01*
X166449000Y-82949000D01*
X168551000Y-82949000D01*
X168551000Y-83951000D01*
G37*
G36*
X150551000Y-83951000D02*
G01*
X148449000Y-83951000D01*
X148449000Y-82949000D01*
X150551000Y-82949000D01*
X150551000Y-83951000D01*
G37*
G36*
X177497928Y-82883764D02*
G01*
X177519009Y-82890160D01*
X177538445Y-82900548D01*
X177555476Y-82914524D01*
X177569452Y-82931555D01*
X177579840Y-82950991D01*
X177586236Y-82972072D01*
X177589000Y-83000140D01*
X177589000Y-83463860D01*
X177586236Y-83491928D01*
X177579840Y-83513009D01*
X177569452Y-83532445D01*
X177555476Y-83549476D01*
X177538445Y-83563452D01*
X177519009Y-83573840D01*
X177497928Y-83580236D01*
X177469860Y-83583000D01*
X175656140Y-83583000D01*
X175628072Y-83580236D01*
X175606991Y-83573840D01*
X175587555Y-83563452D01*
X175570524Y-83549476D01*
X175556548Y-83532445D01*
X175546160Y-83513009D01*
X175539764Y-83491928D01*
X175537000Y-83463860D01*
X175537000Y-83000140D01*
X175539764Y-82972072D01*
X175546160Y-82950991D01*
X175556548Y-82931555D01*
X175570524Y-82914524D01*
X175587555Y-82900548D01*
X175606991Y-82890160D01*
X175628072Y-82883764D01*
X175656140Y-82881000D01*
X177469860Y-82881000D01*
X177497928Y-82883764D01*
G37*
G36*
X182447928Y-82883764D02*
G01*
X182469009Y-82890160D01*
X182488445Y-82900548D01*
X182505476Y-82914524D01*
X182519452Y-82931555D01*
X182529840Y-82950991D01*
X182536236Y-82972072D01*
X182539000Y-83000140D01*
X182539000Y-83463860D01*
X182536236Y-83491928D01*
X182529840Y-83513009D01*
X182519452Y-83532445D01*
X182505476Y-83549476D01*
X182488445Y-83563452D01*
X182469009Y-83573840D01*
X182447928Y-83580236D01*
X182419860Y-83583000D01*
X180606140Y-83583000D01*
X180578072Y-83580236D01*
X180556991Y-83573840D01*
X180537555Y-83563452D01*
X180520524Y-83549476D01*
X180506548Y-83532445D01*
X180496160Y-83513009D01*
X180489764Y-83491928D01*
X180487000Y-83463860D01*
X180487000Y-83000140D01*
X180489764Y-82972072D01*
X180496160Y-82950991D01*
X180506548Y-82931555D01*
X180520524Y-82914524D01*
X180537555Y-82900548D01*
X180556991Y-82890160D01*
X180578072Y-82883764D01*
X180606140Y-82881000D01*
X182419860Y-82881000D01*
X182447928Y-82883764D01*
G37*
G36*
X174379591Y-81803085D02*
G01*
X174413569Y-81813393D01*
X174444890Y-81830134D01*
X174472339Y-81852661D01*
X174494866Y-81880110D01*
X174511607Y-81911431D01*
X174521915Y-81945409D01*
X174526000Y-81986890D01*
X174526000Y-82588110D01*
X174521915Y-82629591D01*
X174511607Y-82663569D01*
X174494866Y-82694890D01*
X174472339Y-82722339D01*
X174444890Y-82744866D01*
X174413569Y-82761607D01*
X174379591Y-82771915D01*
X174338110Y-82776000D01*
X173661890Y-82776000D01*
X173620409Y-82771915D01*
X173586431Y-82761607D01*
X173555110Y-82744866D01*
X173527661Y-82722339D01*
X173505134Y-82694890D01*
X173488393Y-82663569D01*
X173478085Y-82629591D01*
X173474000Y-82588110D01*
X173474000Y-81986890D01*
X173478085Y-81945409D01*
X173488393Y-81911431D01*
X173505134Y-81880110D01*
X173527661Y-81852661D01*
X173555110Y-81830134D01*
X173586431Y-81813393D01*
X173620409Y-81803085D01*
X173661890Y-81799000D01*
X174338110Y-81799000D01*
X174379591Y-81803085D01*
G37*
G36*
X172379591Y-81803085D02*
G01*
X172413569Y-81813393D01*
X172444890Y-81830134D01*
X172472339Y-81852661D01*
X172494866Y-81880110D01*
X172511607Y-81911431D01*
X172521915Y-81945409D01*
X172526000Y-81986890D01*
X172526000Y-82588110D01*
X172521915Y-82629591D01*
X172511607Y-82663569D01*
X172494866Y-82694890D01*
X172472339Y-82722339D01*
X172444890Y-82744866D01*
X172413569Y-82761607D01*
X172379591Y-82771915D01*
X172338110Y-82776000D01*
X171661890Y-82776000D01*
X171620409Y-82771915D01*
X171586431Y-82761607D01*
X171555110Y-82744866D01*
X171527661Y-82722339D01*
X171505134Y-82694890D01*
X171488393Y-82663569D01*
X171478085Y-82629591D01*
X171474000Y-82588110D01*
X171474000Y-81986890D01*
X171478085Y-81945409D01*
X171488393Y-81911431D01*
X171505134Y-81880110D01*
X171527661Y-81852661D01*
X171555110Y-81830134D01*
X171586431Y-81813393D01*
X171620409Y-81803085D01*
X171661890Y-81799000D01*
X172338110Y-81799000D01*
X172379591Y-81803085D01*
G37*
G36*
X168551000Y-82681000D02*
G01*
X166449000Y-82681000D01*
X166449000Y-81679000D01*
X168551000Y-81679000D01*
X168551000Y-82681000D01*
G37*
G36*
X150551000Y-82681000D02*
G01*
X148449000Y-82681000D01*
X148449000Y-81679000D01*
X150551000Y-81679000D01*
X150551000Y-82681000D01*
G37*
G36*
X182447928Y-81613764D02*
G01*
X182469009Y-81620160D01*
X182488445Y-81630548D01*
X182505476Y-81644524D01*
X182519452Y-81661555D01*
X182529840Y-81680991D01*
X182536236Y-81702072D01*
X182539000Y-81730140D01*
X182539000Y-82193860D01*
X182536236Y-82221928D01*
X182529840Y-82243009D01*
X182519452Y-82262445D01*
X182505476Y-82279476D01*
X182488445Y-82293452D01*
X182469009Y-82303840D01*
X182447928Y-82310236D01*
X182419860Y-82313000D01*
X180606140Y-82313000D01*
X180578072Y-82310236D01*
X180556991Y-82303840D01*
X180537555Y-82293452D01*
X180520524Y-82279476D01*
X180506548Y-82262445D01*
X180496160Y-82243009D01*
X180489764Y-82221928D01*
X180487000Y-82193860D01*
X180487000Y-81730140D01*
X180489764Y-81702072D01*
X180496160Y-81680991D01*
X180506548Y-81661555D01*
X180520524Y-81644524D01*
X180537555Y-81630548D01*
X180556991Y-81620160D01*
X180578072Y-81613764D01*
X180606140Y-81611000D01*
X182419860Y-81611000D01*
X182447928Y-81613764D01*
G37*
G36*
X177497928Y-81613764D02*
G01*
X177519009Y-81620160D01*
X177538445Y-81630548D01*
X177555476Y-81644524D01*
X177569452Y-81661555D01*
X177579840Y-81680991D01*
X177586236Y-81702072D01*
X177589000Y-81730140D01*
X177589000Y-82193860D01*
X177586236Y-82221928D01*
X177579840Y-82243009D01*
X177569452Y-82262445D01*
X177555476Y-82279476D01*
X177538445Y-82293452D01*
X177519009Y-82303840D01*
X177497928Y-82310236D01*
X177469860Y-82313000D01*
X175656140Y-82313000D01*
X175628072Y-82310236D01*
X175606991Y-82303840D01*
X175587555Y-82293452D01*
X175570524Y-82279476D01*
X175556548Y-82262445D01*
X175546160Y-82243009D01*
X175539764Y-82221928D01*
X175537000Y-82193860D01*
X175537000Y-81730140D01*
X175539764Y-81702072D01*
X175546160Y-81680991D01*
X175556548Y-81661555D01*
X175570524Y-81644524D01*
X175587555Y-81630548D01*
X175606991Y-81620160D01*
X175628072Y-81613764D01*
X175656140Y-81611000D01*
X177469860Y-81611000D01*
X177497928Y-81613764D01*
G37*
G36*
X121093000Y-81597000D02*
G01*
X119191000Y-81597000D01*
X119191000Y-78995000D01*
X121093000Y-78995000D01*
X121093000Y-81597000D01*
G37*
G36*
X161851000Y-81501000D02*
G01*
X155749000Y-81501000D01*
X155749000Y-75399000D01*
X161851000Y-75399000D01*
X161851000Y-81501000D01*
G37*
G36*
X168551000Y-81411000D02*
G01*
X166449000Y-81411000D01*
X166449000Y-80409000D01*
X168551000Y-80409000D01*
X168551000Y-81411000D01*
G37*
G36*
X150551000Y-81411000D02*
G01*
X148449000Y-81411000D01*
X148449000Y-80409000D01*
X150551000Y-80409000D01*
X150551000Y-81411000D01*
G37*
G36*
X172379591Y-80228085D02*
G01*
X172413569Y-80238393D01*
X172444890Y-80255134D01*
X172472339Y-80277661D01*
X172494866Y-80305110D01*
X172511607Y-80336431D01*
X172521915Y-80370409D01*
X172526000Y-80411890D01*
X172526000Y-81013110D01*
X172521915Y-81054591D01*
X172511607Y-81088569D01*
X172494866Y-81119890D01*
X172472339Y-81147339D01*
X172444890Y-81169866D01*
X172413569Y-81186607D01*
X172379591Y-81196915D01*
X172338110Y-81201000D01*
X171661890Y-81201000D01*
X171620409Y-81196915D01*
X171586431Y-81186607D01*
X171555110Y-81169866D01*
X171527661Y-81147339D01*
X171505134Y-81119890D01*
X171488393Y-81088569D01*
X171478085Y-81054591D01*
X171474000Y-81013110D01*
X171474000Y-80411890D01*
X171478085Y-80370409D01*
X171488393Y-80336431D01*
X171505134Y-80305110D01*
X171527661Y-80277661D01*
X171555110Y-80255134D01*
X171586431Y-80238393D01*
X171620409Y-80228085D01*
X171661890Y-80224000D01*
X172338110Y-80224000D01*
X172379591Y-80228085D01*
G37*
G36*
X174379591Y-80228085D02*
G01*
X174413569Y-80238393D01*
X174444890Y-80255134D01*
X174472339Y-80277661D01*
X174494866Y-80305110D01*
X174511607Y-80336431D01*
X174521915Y-80370409D01*
X174526000Y-80411890D01*
X174526000Y-81013110D01*
X174521915Y-81054591D01*
X174511607Y-81088569D01*
X174494866Y-81119890D01*
X174472339Y-81147339D01*
X174444890Y-81169866D01*
X174413569Y-81186607D01*
X174379591Y-81196915D01*
X174338110Y-81201000D01*
X173661890Y-81201000D01*
X173620409Y-81196915D01*
X173586431Y-81186607D01*
X173555110Y-81169866D01*
X173527661Y-81147339D01*
X173505134Y-81119890D01*
X173488393Y-81088569D01*
X173478085Y-81054591D01*
X173474000Y-81013110D01*
X173474000Y-80411890D01*
X173478085Y-80370409D01*
X173488393Y-80336431D01*
X173505134Y-80305110D01*
X173527661Y-80277661D01*
X173555110Y-80255134D01*
X173586431Y-80238393D01*
X173620409Y-80228085D01*
X173661890Y-80224000D01*
X174338110Y-80224000D01*
X174379591Y-80228085D01*
G37*
G36*
X177497928Y-80343764D02*
G01*
X177519009Y-80350160D01*
X177538445Y-80360548D01*
X177555476Y-80374524D01*
X177569452Y-80391555D01*
X177579840Y-80410991D01*
X177586236Y-80432072D01*
X177589000Y-80460140D01*
X177589000Y-80923860D01*
X177586236Y-80951928D01*
X177579840Y-80973009D01*
X177569452Y-80992445D01*
X177555476Y-81009476D01*
X177538445Y-81023452D01*
X177519009Y-81033840D01*
X177497928Y-81040236D01*
X177469860Y-81043000D01*
X175656140Y-81043000D01*
X175628072Y-81040236D01*
X175606991Y-81033840D01*
X175587555Y-81023452D01*
X175570524Y-81009476D01*
X175556548Y-80992445D01*
X175546160Y-80973009D01*
X175539764Y-80951928D01*
X175537000Y-80923860D01*
X175537000Y-80460140D01*
X175539764Y-80432072D01*
X175546160Y-80410991D01*
X175556548Y-80391555D01*
X175570524Y-80374524D01*
X175587555Y-80360548D01*
X175606991Y-80350160D01*
X175628072Y-80343764D01*
X175656140Y-80341000D01*
X177469860Y-80341000D01*
X177497928Y-80343764D01*
G37*
G36*
X182447928Y-80343764D02*
G01*
X182469009Y-80350160D01*
X182488445Y-80360548D01*
X182505476Y-80374524D01*
X182519452Y-80391555D01*
X182529840Y-80410991D01*
X182536236Y-80432072D01*
X182539000Y-80460140D01*
X182539000Y-80923860D01*
X182536236Y-80951928D01*
X182529840Y-80973009D01*
X182519452Y-80992445D01*
X182505476Y-81009476D01*
X182488445Y-81023452D01*
X182469009Y-81033840D01*
X182447928Y-81040236D01*
X182419860Y-81043000D01*
X180606140Y-81043000D01*
X180578072Y-81040236D01*
X180556991Y-81033840D01*
X180537555Y-81023452D01*
X180520524Y-81009476D01*
X180506548Y-80992445D01*
X180496160Y-80973009D01*
X180489764Y-80951928D01*
X180487000Y-80923860D01*
X180487000Y-80460140D01*
X180489764Y-80432072D01*
X180496160Y-80410991D01*
X180506548Y-80391555D01*
X180520524Y-80374524D01*
X180537555Y-80360548D01*
X180556991Y-80350160D01*
X180578072Y-80343764D01*
X180606140Y-80341000D01*
X182419860Y-80341000D01*
X182447928Y-80343764D01*
G37*
G36*
X142451000Y-81001000D02*
G01*
X141549000Y-81001000D01*
X141549000Y-79999000D01*
X142451000Y-79999000D01*
X142451000Y-81001000D01*
G37*
G36*
X138451000Y-81001000D02*
G01*
X137549000Y-81001000D01*
X137549000Y-79999000D01*
X138451000Y-79999000D01*
X138451000Y-81001000D01*
G37*
G36*
X168551000Y-80141000D02*
G01*
X166449000Y-80141000D01*
X166449000Y-79139000D01*
X168551000Y-79139000D01*
X168551000Y-80141000D01*
G37*
G36*
X150551000Y-80141000D02*
G01*
X148449000Y-80141000D01*
X148449000Y-79139000D01*
X150551000Y-79139000D01*
X150551000Y-80141000D01*
G37*
G36*
X123252591Y-78980085D02*
G01*
X123286569Y-78990393D01*
X123317890Y-79007134D01*
X123345339Y-79029661D01*
X123367866Y-79057110D01*
X123384607Y-79088431D01*
X123394915Y-79122409D01*
X123399000Y-79163890D01*
X123399000Y-79840110D01*
X123394915Y-79881591D01*
X123384607Y-79915569D01*
X123367866Y-79946890D01*
X123345339Y-79974339D01*
X123317890Y-79996866D01*
X123286569Y-80013607D01*
X123252591Y-80023915D01*
X123211110Y-80028000D01*
X122609890Y-80028000D01*
X122568409Y-80023915D01*
X122534431Y-80013607D01*
X122503110Y-79996866D01*
X122475661Y-79974339D01*
X122453134Y-79946890D01*
X122436393Y-79915569D01*
X122426085Y-79881591D01*
X122422000Y-79840110D01*
X122422000Y-79163890D01*
X122426085Y-79122409D01*
X122436393Y-79088431D01*
X122453134Y-79057110D01*
X122475661Y-79029661D01*
X122503110Y-79007134D01*
X122534431Y-78990393D01*
X122568409Y-78980085D01*
X122609890Y-78976000D01*
X123211110Y-78976000D01*
X123252591Y-78980085D01*
G37*
G36*
X124827591Y-78980085D02*
G01*
X124861569Y-78990393D01*
X124892890Y-79007134D01*
X124920339Y-79029661D01*
X124942866Y-79057110D01*
X124959607Y-79088431D01*
X124969915Y-79122409D01*
X124974000Y-79163890D01*
X124974000Y-79840110D01*
X124969915Y-79881591D01*
X124959607Y-79915569D01*
X124942866Y-79946890D01*
X124920339Y-79974339D01*
X124892890Y-79996866D01*
X124861569Y-80013607D01*
X124827591Y-80023915D01*
X124786110Y-80028000D01*
X124184890Y-80028000D01*
X124143409Y-80023915D01*
X124109431Y-80013607D01*
X124078110Y-79996866D01*
X124050661Y-79974339D01*
X124028134Y-79946890D01*
X124011393Y-79915569D01*
X124001085Y-79881591D01*
X123997000Y-79840110D01*
X123997000Y-79163890D01*
X124001085Y-79122409D01*
X124011393Y-79088431D01*
X124028134Y-79057110D01*
X124050661Y-79029661D01*
X124078110Y-79007134D01*
X124109431Y-78990393D01*
X124143409Y-78980085D01*
X124184890Y-78976000D01*
X124786110Y-78976000D01*
X124827591Y-78980085D01*
G37*
G36*
X130587928Y-79272764D02*
G01*
X130609009Y-79279160D01*
X130628445Y-79289548D01*
X130645476Y-79303524D01*
X130659452Y-79320555D01*
X130669840Y-79339991D01*
X130676236Y-79361072D01*
X130679000Y-79389140D01*
X130679000Y-79852860D01*
X130676236Y-79880928D01*
X130669840Y-79902009D01*
X130659452Y-79921445D01*
X130645476Y-79938476D01*
X130628445Y-79952452D01*
X130609009Y-79962840D01*
X130587928Y-79969236D01*
X130559860Y-79972000D01*
X128746140Y-79972000D01*
X128718072Y-79969236D01*
X128696991Y-79962840D01*
X128677555Y-79952452D01*
X128660524Y-79938476D01*
X128646548Y-79921445D01*
X128636160Y-79902009D01*
X128629764Y-79880928D01*
X128627000Y-79852860D01*
X128627000Y-79389140D01*
X128629764Y-79361072D01*
X128636160Y-79339991D01*
X128646548Y-79320555D01*
X128660524Y-79303524D01*
X128677555Y-79289548D01*
X128696991Y-79279160D01*
X128718072Y-79272764D01*
X128746140Y-79270000D01*
X130559860Y-79270000D01*
X130587928Y-79272764D01*
G37*
G36*
X135537928Y-79272764D02*
G01*
X135559009Y-79279160D01*
X135578445Y-79289548D01*
X135595476Y-79303524D01*
X135609452Y-79320555D01*
X135619840Y-79339991D01*
X135626236Y-79361072D01*
X135629000Y-79389140D01*
X135629000Y-79852860D01*
X135626236Y-79880928D01*
X135619840Y-79902009D01*
X135609452Y-79921445D01*
X135595476Y-79938476D01*
X135578445Y-79952452D01*
X135559009Y-79962840D01*
X135537928Y-79969236D01*
X135509860Y-79972000D01*
X133696140Y-79972000D01*
X133668072Y-79969236D01*
X133646991Y-79962840D01*
X133627555Y-79952452D01*
X133610524Y-79938476D01*
X133596548Y-79921445D01*
X133586160Y-79902009D01*
X133579764Y-79880928D01*
X133577000Y-79852860D01*
X133577000Y-79389140D01*
X133579764Y-79361072D01*
X133586160Y-79339991D01*
X133596548Y-79320555D01*
X133610524Y-79303524D01*
X133627555Y-79289548D01*
X133646991Y-79279160D01*
X133668072Y-79272764D01*
X133696140Y-79270000D01*
X135509860Y-79270000D01*
X135537928Y-79272764D01*
G37*
G36*
X182447928Y-79073764D02*
G01*
X182469009Y-79080160D01*
X182488445Y-79090548D01*
X182505476Y-79104524D01*
X182519452Y-79121555D01*
X182529840Y-79140991D01*
X182536236Y-79162072D01*
X182539000Y-79190140D01*
X182539000Y-79653860D01*
X182536236Y-79681928D01*
X182529840Y-79703009D01*
X182519452Y-79722445D01*
X182505476Y-79739476D01*
X182488445Y-79753452D01*
X182469009Y-79763840D01*
X182447928Y-79770236D01*
X182419860Y-79773000D01*
X180606140Y-79773000D01*
X180578072Y-79770236D01*
X180556991Y-79763840D01*
X180537555Y-79753452D01*
X180520524Y-79739476D01*
X180506548Y-79722445D01*
X180496160Y-79703009D01*
X180489764Y-79681928D01*
X180487000Y-79653860D01*
X180487000Y-79190140D01*
X180489764Y-79162072D01*
X180496160Y-79140991D01*
X180506548Y-79121555D01*
X180520524Y-79104524D01*
X180537555Y-79090548D01*
X180556991Y-79080160D01*
X180578072Y-79073764D01*
X180606140Y-79071000D01*
X182419860Y-79071000D01*
X182447928Y-79073764D01*
G37*
G36*
X177497928Y-79073764D02*
G01*
X177519009Y-79080160D01*
X177538445Y-79090548D01*
X177555476Y-79104524D01*
X177569452Y-79121555D01*
X177579840Y-79140991D01*
X177586236Y-79162072D01*
X177589000Y-79190140D01*
X177589000Y-79653860D01*
X177586236Y-79681928D01*
X177579840Y-79703009D01*
X177569452Y-79722445D01*
X177555476Y-79739476D01*
X177538445Y-79753452D01*
X177519009Y-79763840D01*
X177497928Y-79770236D01*
X177469860Y-79773000D01*
X175656140Y-79773000D01*
X175628072Y-79770236D01*
X175606991Y-79763840D01*
X175587555Y-79753452D01*
X175570524Y-79739476D01*
X175556548Y-79722445D01*
X175546160Y-79703009D01*
X175539764Y-79681928D01*
X175537000Y-79653860D01*
X175537000Y-79190140D01*
X175539764Y-79162072D01*
X175546160Y-79140991D01*
X175556548Y-79121555D01*
X175570524Y-79104524D01*
X175587555Y-79090548D01*
X175606991Y-79080160D01*
X175628072Y-79073764D01*
X175656140Y-79071000D01*
X177469860Y-79071000D01*
X177497928Y-79073764D01*
G37*
G36*
X173451000Y-79501000D02*
G01*
X172549000Y-79501000D01*
X172549000Y-78499000D01*
X173451000Y-78499000D01*
X173451000Y-79501000D01*
G37*
G36*
X137501000Y-79001000D02*
G01*
X136599000Y-79001000D01*
X136599000Y-77999000D01*
X137501000Y-77999000D01*
X137501000Y-79001000D01*
G37*
G36*
X139401000Y-79001000D02*
G01*
X138499000Y-79001000D01*
X138499000Y-77999000D01*
X139401000Y-77999000D01*
X139401000Y-79001000D01*
G37*
G36*
X143401000Y-79001000D02*
G01*
X142499000Y-79001000D01*
X142499000Y-77999000D01*
X143401000Y-77999000D01*
X143401000Y-79001000D01*
G37*
G36*
X141501000Y-79001000D02*
G01*
X140599000Y-79001000D01*
X140599000Y-77999000D01*
X141501000Y-77999000D01*
X141501000Y-79001000D01*
G37*
G36*
X168551000Y-78871000D02*
G01*
X166449000Y-78871000D01*
X166449000Y-77869000D01*
X168551000Y-77869000D01*
X168551000Y-78871000D01*
G37*
G36*
X150551000Y-78871000D02*
G01*
X148449000Y-78871000D01*
X148449000Y-77869000D01*
X150551000Y-77869000D01*
X150551000Y-78871000D01*
G37*
G36*
X135537928Y-78002764D02*
G01*
X135559009Y-78009160D01*
X135578445Y-78019548D01*
X135595476Y-78033524D01*
X135609452Y-78050555D01*
X135619840Y-78069991D01*
X135626236Y-78091072D01*
X135629000Y-78119140D01*
X135629000Y-78582860D01*
X135626236Y-78610928D01*
X135619840Y-78632009D01*
X135609452Y-78651445D01*
X135595476Y-78668476D01*
X135578445Y-78682452D01*
X135559009Y-78692840D01*
X135537928Y-78699236D01*
X135509860Y-78702000D01*
X133696140Y-78702000D01*
X133668072Y-78699236D01*
X133646991Y-78692840D01*
X133627555Y-78682452D01*
X133610524Y-78668476D01*
X133596548Y-78651445D01*
X133586160Y-78632009D01*
X133579764Y-78610928D01*
X133577000Y-78582860D01*
X133577000Y-78119140D01*
X133579764Y-78091072D01*
X133586160Y-78069991D01*
X133596548Y-78050555D01*
X133610524Y-78033524D01*
X133627555Y-78019548D01*
X133646991Y-78009160D01*
X133668072Y-78002764D01*
X133696140Y-78000000D01*
X135509860Y-78000000D01*
X135537928Y-78002764D01*
G37*
G36*
X130587928Y-78002764D02*
G01*
X130609009Y-78009160D01*
X130628445Y-78019548D01*
X130645476Y-78033524D01*
X130659452Y-78050555D01*
X130669840Y-78069991D01*
X130676236Y-78091072D01*
X130679000Y-78119140D01*
X130679000Y-78582860D01*
X130676236Y-78610928D01*
X130669840Y-78632009D01*
X130659452Y-78651445D01*
X130645476Y-78668476D01*
X130628445Y-78682452D01*
X130609009Y-78692840D01*
X130587928Y-78699236D01*
X130559860Y-78702000D01*
X128746140Y-78702000D01*
X128718072Y-78699236D01*
X128696991Y-78692840D01*
X128677555Y-78682452D01*
X128660524Y-78668476D01*
X128646548Y-78651445D01*
X128636160Y-78632009D01*
X128629764Y-78610928D01*
X128627000Y-78582860D01*
X128627000Y-78119140D01*
X128629764Y-78091072D01*
X128636160Y-78069991D01*
X128646548Y-78050555D01*
X128660524Y-78033524D01*
X128677555Y-78019548D01*
X128696991Y-78009160D01*
X128718072Y-78002764D01*
X128746140Y-78000000D01*
X130559860Y-78000000D01*
X130587928Y-78002764D01*
G37*
G36*
X146054591Y-77478085D02*
G01*
X146088569Y-77488393D01*
X146119890Y-77505134D01*
X146147339Y-77527661D01*
X146169866Y-77555110D01*
X146186607Y-77586431D01*
X146196915Y-77620409D01*
X146201000Y-77661890D01*
X146201000Y-78338110D01*
X146196915Y-78379591D01*
X146186607Y-78413569D01*
X146169866Y-78444890D01*
X146147339Y-78472339D01*
X146119890Y-78494866D01*
X146088569Y-78511607D01*
X146054591Y-78521915D01*
X146013110Y-78526000D01*
X145411890Y-78526000D01*
X145370409Y-78521915D01*
X145336431Y-78511607D01*
X145305110Y-78494866D01*
X145277661Y-78472339D01*
X145255134Y-78444890D01*
X145238393Y-78413569D01*
X145228085Y-78379591D01*
X145224000Y-78338110D01*
X145224000Y-77661890D01*
X145228085Y-77620409D01*
X145238393Y-77586431D01*
X145255134Y-77555110D01*
X145277661Y-77527661D01*
X145305110Y-77505134D01*
X145336431Y-77488393D01*
X145370409Y-77478085D01*
X145411890Y-77474000D01*
X146013110Y-77474000D01*
X146054591Y-77478085D01*
G37*
G36*
X147629591Y-77478085D02*
G01*
X147663569Y-77488393D01*
X147694890Y-77505134D01*
X147722339Y-77527661D01*
X147744866Y-77555110D01*
X147761607Y-77586431D01*
X147771915Y-77620409D01*
X147776000Y-77661890D01*
X147776000Y-78338110D01*
X147771915Y-78379591D01*
X147761607Y-78413569D01*
X147744866Y-78444890D01*
X147722339Y-78472339D01*
X147694890Y-78494866D01*
X147663569Y-78511607D01*
X147629591Y-78521915D01*
X147588110Y-78526000D01*
X146986890Y-78526000D01*
X146945409Y-78521915D01*
X146911431Y-78511607D01*
X146880110Y-78494866D01*
X146852661Y-78472339D01*
X146830134Y-78444890D01*
X146813393Y-78413569D01*
X146803085Y-78379591D01*
X146799000Y-78338110D01*
X146799000Y-77661890D01*
X146803085Y-77620409D01*
X146813393Y-77586431D01*
X146830134Y-77555110D01*
X146852661Y-77527661D01*
X146880110Y-77505134D01*
X146911431Y-77488393D01*
X146945409Y-77478085D01*
X146986890Y-77474000D01*
X147588110Y-77474000D01*
X147629591Y-77478085D01*
G37*
G36*
X177497928Y-77803764D02*
G01*
X177519009Y-77810160D01*
X177538445Y-77820548D01*
X177555476Y-77834524D01*
X177569452Y-77851555D01*
X177579840Y-77870991D01*
X177586236Y-77892072D01*
X177589000Y-77920140D01*
X177589000Y-78383860D01*
X177586236Y-78411928D01*
X177579840Y-78433009D01*
X177569452Y-78452445D01*
X177555476Y-78469476D01*
X177538445Y-78483452D01*
X177519009Y-78493840D01*
X177497928Y-78500236D01*
X177469860Y-78503000D01*
X175656140Y-78503000D01*
X175628072Y-78500236D01*
X175606991Y-78493840D01*
X175587555Y-78483452D01*
X175570524Y-78469476D01*
X175556548Y-78452445D01*
X175546160Y-78433009D01*
X175539764Y-78411928D01*
X175537000Y-78383860D01*
X175537000Y-77920140D01*
X175539764Y-77892072D01*
X175546160Y-77870991D01*
X175556548Y-77851555D01*
X175570524Y-77834524D01*
X175587555Y-77820548D01*
X175606991Y-77810160D01*
X175628072Y-77803764D01*
X175656140Y-77801000D01*
X177469860Y-77801000D01*
X177497928Y-77803764D01*
G37*
G36*
X182447928Y-77803764D02*
G01*
X182469009Y-77810160D01*
X182488445Y-77820548D01*
X182505476Y-77834524D01*
X182519452Y-77851555D01*
X182529840Y-77870991D01*
X182536236Y-77892072D01*
X182539000Y-77920140D01*
X182539000Y-78383860D01*
X182536236Y-78411928D01*
X182529840Y-78433009D01*
X182519452Y-78452445D01*
X182505476Y-78469476D01*
X182488445Y-78483452D01*
X182469009Y-78493840D01*
X182447928Y-78500236D01*
X182419860Y-78503000D01*
X180606140Y-78503000D01*
X180578072Y-78500236D01*
X180556991Y-78493840D01*
X180537555Y-78483452D01*
X180520524Y-78469476D01*
X180506548Y-78452445D01*
X180496160Y-78433009D01*
X180489764Y-78411928D01*
X180487000Y-78383860D01*
X180487000Y-77920140D01*
X180489764Y-77892072D01*
X180496160Y-77870991D01*
X180506548Y-77851555D01*
X180520524Y-77834524D01*
X180537555Y-77820548D01*
X180556991Y-77810160D01*
X180578072Y-77803764D01*
X180606140Y-77801000D01*
X182419860Y-77801000D01*
X182447928Y-77803764D01*
G37*
G36*
X126479000Y-78143000D02*
G01*
X124577000Y-78143000D01*
X124577000Y-76941000D01*
X126479000Y-76941000D01*
X126479000Y-78143000D01*
G37*
G36*
X120279000Y-78143000D02*
G01*
X118377000Y-78143000D01*
X118377000Y-76941000D01*
X120279000Y-76941000D01*
X120279000Y-78143000D01*
G37*
G36*
X168551000Y-77601000D02*
G01*
X166449000Y-77601000D01*
X166449000Y-76599000D01*
X168551000Y-76599000D01*
X168551000Y-77601000D01*
G37*
G36*
X150551000Y-77601000D02*
G01*
X148449000Y-77601000D01*
X148449000Y-76599000D01*
X150551000Y-76599000D01*
X150551000Y-77601000D01*
G37*
G36*
X174401000Y-77501000D02*
G01*
X173499000Y-77501000D01*
X173499000Y-76499000D01*
X174401000Y-76499000D01*
X174401000Y-77501000D01*
G37*
G36*
X172501000Y-77501000D02*
G01*
X171599000Y-77501000D01*
X171599000Y-76499000D01*
X172501000Y-76499000D01*
X172501000Y-77501000D01*
G37*
G36*
X135537928Y-76732764D02*
G01*
X135559009Y-76739160D01*
X135578445Y-76749548D01*
X135595476Y-76763524D01*
X135609452Y-76780555D01*
X135619840Y-76799991D01*
X135626236Y-76821072D01*
X135629000Y-76849140D01*
X135629000Y-77312860D01*
X135626236Y-77340928D01*
X135619840Y-77362009D01*
X135609452Y-77381445D01*
X135595476Y-77398476D01*
X135578445Y-77412452D01*
X135559009Y-77422840D01*
X135537928Y-77429236D01*
X135509860Y-77432000D01*
X133696140Y-77432000D01*
X133668072Y-77429236D01*
X133646991Y-77422840D01*
X133627555Y-77412452D01*
X133610524Y-77398476D01*
X133596548Y-77381445D01*
X133586160Y-77362009D01*
X133579764Y-77340928D01*
X133577000Y-77312860D01*
X133577000Y-76849140D01*
X133579764Y-76821072D01*
X133586160Y-76799991D01*
X133596548Y-76780555D01*
X133610524Y-76763524D01*
X133627555Y-76749548D01*
X133646991Y-76739160D01*
X133668072Y-76732764D01*
X133696140Y-76730000D01*
X135509860Y-76730000D01*
X135537928Y-76732764D01*
G37*
G36*
X130587928Y-76732764D02*
G01*
X130609009Y-76739160D01*
X130628445Y-76749548D01*
X130645476Y-76763524D01*
X130659452Y-76780555D01*
X130669840Y-76799991D01*
X130676236Y-76821072D01*
X130679000Y-76849140D01*
X130679000Y-77312860D01*
X130676236Y-77340928D01*
X130669840Y-77362009D01*
X130659452Y-77381445D01*
X130645476Y-77398476D01*
X130628445Y-77412452D01*
X130609009Y-77422840D01*
X130587928Y-77429236D01*
X130559860Y-77432000D01*
X128746140Y-77432000D01*
X128718072Y-77429236D01*
X128696991Y-77422840D01*
X128677555Y-77412452D01*
X128660524Y-77398476D01*
X128646548Y-77381445D01*
X128636160Y-77362009D01*
X128629764Y-77340928D01*
X128627000Y-77312860D01*
X128627000Y-76849140D01*
X128629764Y-76821072D01*
X128636160Y-76799991D01*
X128646548Y-76780555D01*
X128660524Y-76763524D01*
X128677555Y-76749548D01*
X128696991Y-76739160D01*
X128718072Y-76732764D01*
X128746140Y-76730000D01*
X130559860Y-76730000D01*
X130587928Y-76732764D01*
G37*
G36*
X182447928Y-76533764D02*
G01*
X182469009Y-76540160D01*
X182488445Y-76550548D01*
X182505476Y-76564524D01*
X182519452Y-76581555D01*
X182529840Y-76600991D01*
X182536236Y-76622072D01*
X182539000Y-76650140D01*
X182539000Y-77113860D01*
X182536236Y-77141928D01*
X182529840Y-77163009D01*
X182519452Y-77182445D01*
X182505476Y-77199476D01*
X182488445Y-77213452D01*
X182469009Y-77223840D01*
X182447928Y-77230236D01*
X182419860Y-77233000D01*
X180606140Y-77233000D01*
X180578072Y-77230236D01*
X180556991Y-77223840D01*
X180537555Y-77213452D01*
X180520524Y-77199476D01*
X180506548Y-77182445D01*
X180496160Y-77163009D01*
X180489764Y-77141928D01*
X180487000Y-77113860D01*
X180487000Y-76650140D01*
X180489764Y-76622072D01*
X180496160Y-76600991D01*
X180506548Y-76581555D01*
X180520524Y-76564524D01*
X180537555Y-76550548D01*
X180556991Y-76540160D01*
X180578072Y-76533764D01*
X180606140Y-76531000D01*
X182419860Y-76531000D01*
X182447928Y-76533764D01*
G37*
G36*
X177497928Y-76533764D02*
G01*
X177519009Y-76540160D01*
X177538445Y-76550548D01*
X177555476Y-76564524D01*
X177569452Y-76581555D01*
X177579840Y-76600991D01*
X177586236Y-76622072D01*
X177589000Y-76650140D01*
X177589000Y-77113860D01*
X177586236Y-77141928D01*
X177579840Y-77163009D01*
X177569452Y-77182445D01*
X177555476Y-77199476D01*
X177538445Y-77213452D01*
X177519009Y-77223840D01*
X177497928Y-77230236D01*
X177469860Y-77233000D01*
X175656140Y-77233000D01*
X175628072Y-77230236D01*
X175606991Y-77223840D01*
X175587555Y-77213452D01*
X175570524Y-77199476D01*
X175556548Y-77182445D01*
X175546160Y-77163009D01*
X175539764Y-77141928D01*
X175537000Y-77113860D01*
X175537000Y-76650140D01*
X175539764Y-76622072D01*
X175546160Y-76600991D01*
X175556548Y-76581555D01*
X175570524Y-76564524D01*
X175587555Y-76550548D01*
X175606991Y-76540160D01*
X175628072Y-76533764D01*
X175656140Y-76531000D01*
X177469860Y-76531000D01*
X177497928Y-76533764D01*
G37*
G36*
X139129591Y-75978085D02*
G01*
X139163569Y-75988393D01*
X139194890Y-76005134D01*
X139222339Y-76027661D01*
X139244866Y-76055110D01*
X139261607Y-76086431D01*
X139271915Y-76120409D01*
X139276000Y-76161890D01*
X139276000Y-76838110D01*
X139271915Y-76879591D01*
X139261607Y-76913569D01*
X139244866Y-76944890D01*
X139222339Y-76972339D01*
X139194890Y-76994866D01*
X139163569Y-77011607D01*
X139129591Y-77021915D01*
X139088110Y-77026000D01*
X138486890Y-77026000D01*
X138445409Y-77021915D01*
X138411431Y-77011607D01*
X138380110Y-76994866D01*
X138352661Y-76972339D01*
X138330134Y-76944890D01*
X138313393Y-76913569D01*
X138303085Y-76879591D01*
X138299000Y-76838110D01*
X138299000Y-76161890D01*
X138303085Y-76120409D01*
X138313393Y-76086431D01*
X138330134Y-76055110D01*
X138352661Y-76027661D01*
X138380110Y-76005134D01*
X138411431Y-75988393D01*
X138445409Y-75978085D01*
X138486890Y-75974000D01*
X139088110Y-75974000D01*
X139129591Y-75978085D01*
G37*
G36*
X137554591Y-75978085D02*
G01*
X137588569Y-75988393D01*
X137619890Y-76005134D01*
X137647339Y-76027661D01*
X137669866Y-76055110D01*
X137686607Y-76086431D01*
X137696915Y-76120409D01*
X137701000Y-76161890D01*
X137701000Y-76838110D01*
X137696915Y-76879591D01*
X137686607Y-76913569D01*
X137669866Y-76944890D01*
X137647339Y-76972339D01*
X137619890Y-76994866D01*
X137588569Y-77011607D01*
X137554591Y-77021915D01*
X137513110Y-77026000D01*
X136911890Y-77026000D01*
X136870409Y-77021915D01*
X136836431Y-77011607D01*
X136805110Y-76994866D01*
X136777661Y-76972339D01*
X136755134Y-76944890D01*
X136738393Y-76913569D01*
X136728085Y-76879591D01*
X136724000Y-76838110D01*
X136724000Y-76161890D01*
X136728085Y-76120409D01*
X136738393Y-76086431D01*
X136755134Y-76055110D01*
X136777661Y-76027661D01*
X136805110Y-76005134D01*
X136836431Y-75988393D01*
X136870409Y-75978085D01*
X136911890Y-75974000D01*
X137513110Y-75974000D01*
X137554591Y-75978085D01*
G37*
G36*
X147629591Y-75478085D02*
G01*
X147663569Y-75488393D01*
X147694890Y-75505134D01*
X147722339Y-75527661D01*
X147744866Y-75555110D01*
X147761607Y-75586431D01*
X147771915Y-75620409D01*
X147776000Y-75661890D01*
X147776000Y-76338110D01*
X147771915Y-76379591D01*
X147761607Y-76413569D01*
X147744866Y-76444890D01*
X147722339Y-76472339D01*
X147694890Y-76494866D01*
X147663569Y-76511607D01*
X147629591Y-76521915D01*
X147588110Y-76526000D01*
X146986890Y-76526000D01*
X146945409Y-76521915D01*
X146911431Y-76511607D01*
X146880110Y-76494866D01*
X146852661Y-76472339D01*
X146830134Y-76444890D01*
X146813393Y-76413569D01*
X146803085Y-76379591D01*
X146799000Y-76338110D01*
X146799000Y-75661890D01*
X146803085Y-75620409D01*
X146813393Y-75586431D01*
X146830134Y-75555110D01*
X146852661Y-75527661D01*
X146880110Y-75505134D01*
X146911431Y-75488393D01*
X146945409Y-75478085D01*
X146986890Y-75474000D01*
X147588110Y-75474000D01*
X147629591Y-75478085D01*
G37*
G36*
X146054591Y-75478085D02*
G01*
X146088569Y-75488393D01*
X146119890Y-75505134D01*
X146147339Y-75527661D01*
X146169866Y-75555110D01*
X146186607Y-75586431D01*
X146196915Y-75620409D01*
X146201000Y-75661890D01*
X146201000Y-76338110D01*
X146196915Y-76379591D01*
X146186607Y-76413569D01*
X146169866Y-76444890D01*
X146147339Y-76472339D01*
X146119890Y-76494866D01*
X146088569Y-76511607D01*
X146054591Y-76521915D01*
X146013110Y-76526000D01*
X145411890Y-76526000D01*
X145370409Y-76521915D01*
X145336431Y-76511607D01*
X145305110Y-76494866D01*
X145277661Y-76472339D01*
X145255134Y-76444890D01*
X145238393Y-76413569D01*
X145228085Y-76379591D01*
X145224000Y-76338110D01*
X145224000Y-75661890D01*
X145228085Y-75620409D01*
X145238393Y-75586431D01*
X145255134Y-75555110D01*
X145277661Y-75527661D01*
X145305110Y-75505134D01*
X145336431Y-75488393D01*
X145370409Y-75478085D01*
X145411890Y-75474000D01*
X146013110Y-75474000D01*
X146054591Y-75478085D01*
G37*
G36*
X168551000Y-76331000D02*
G01*
X166449000Y-76331000D01*
X166449000Y-75329000D01*
X168551000Y-75329000D01*
X168551000Y-76331000D01*
G37*
G36*
X150551000Y-76331000D02*
G01*
X148449000Y-76331000D01*
X148449000Y-75329000D01*
X150551000Y-75329000D01*
X150551000Y-76331000D01*
G37*
G36*
X135537928Y-75462764D02*
G01*
X135559009Y-75469160D01*
X135578445Y-75479548D01*
X135595476Y-75493524D01*
X135609452Y-75510555D01*
X135619840Y-75529991D01*
X135626236Y-75551072D01*
X135629000Y-75579140D01*
X135629000Y-76042860D01*
X135626236Y-76070928D01*
X135619840Y-76092009D01*
X135609452Y-76111445D01*
X135595476Y-76128476D01*
X135578445Y-76142452D01*
X135559009Y-76152840D01*
X135537928Y-76159236D01*
X135509860Y-76162000D01*
X133696140Y-76162000D01*
X133668072Y-76159236D01*
X133646991Y-76152840D01*
X133627555Y-76142452D01*
X133610524Y-76128476D01*
X133596548Y-76111445D01*
X133586160Y-76092009D01*
X133579764Y-76070928D01*
X133577000Y-76042860D01*
X133577000Y-75579140D01*
X133579764Y-75551072D01*
X133586160Y-75529991D01*
X133596548Y-75510555D01*
X133610524Y-75493524D01*
X133627555Y-75479548D01*
X133646991Y-75469160D01*
X133668072Y-75462764D01*
X133696140Y-75460000D01*
X135509860Y-75460000D01*
X135537928Y-75462764D01*
G37*
G36*
X130587928Y-75462764D02*
G01*
X130609009Y-75469160D01*
X130628445Y-75479548D01*
X130645476Y-75493524D01*
X130659452Y-75510555D01*
X130669840Y-75529991D01*
X130676236Y-75551072D01*
X130679000Y-75579140D01*
X130679000Y-76042860D01*
X130676236Y-76070928D01*
X130669840Y-76092009D01*
X130659452Y-76111445D01*
X130645476Y-76128476D01*
X130628445Y-76142452D01*
X130609009Y-76152840D01*
X130587928Y-76159236D01*
X130559860Y-76162000D01*
X128746140Y-76162000D01*
X128718072Y-76159236D01*
X128696991Y-76152840D01*
X128677555Y-76142452D01*
X128660524Y-76128476D01*
X128646548Y-76111445D01*
X128636160Y-76092009D01*
X128629764Y-76070928D01*
X128627000Y-76042860D01*
X128627000Y-75579140D01*
X128629764Y-75551072D01*
X128636160Y-75529991D01*
X128646548Y-75510555D01*
X128660524Y-75493524D01*
X128677555Y-75479548D01*
X128696991Y-75469160D01*
X128718072Y-75462764D01*
X128746140Y-75460000D01*
X130559860Y-75460000D01*
X130587928Y-75462764D01*
G37*
G36*
X174129591Y-74478085D02*
G01*
X174163569Y-74488393D01*
X174194890Y-74505134D01*
X174222339Y-74527661D01*
X174244866Y-74555110D01*
X174261607Y-74586431D01*
X174271915Y-74620409D01*
X174276000Y-74661890D01*
X174276000Y-75338110D01*
X174271915Y-75379591D01*
X174261607Y-75413569D01*
X174244866Y-75444890D01*
X174222339Y-75472339D01*
X174194890Y-75494866D01*
X174163569Y-75511607D01*
X174129591Y-75521915D01*
X174088110Y-75526000D01*
X173486890Y-75526000D01*
X173445409Y-75521915D01*
X173411431Y-75511607D01*
X173380110Y-75494866D01*
X173352661Y-75472339D01*
X173330134Y-75444890D01*
X173313393Y-75413569D01*
X173303085Y-75379591D01*
X173299000Y-75338110D01*
X173299000Y-74661890D01*
X173303085Y-74620409D01*
X173313393Y-74586431D01*
X173330134Y-74555110D01*
X173352661Y-74527661D01*
X173380110Y-74505134D01*
X173411431Y-74488393D01*
X173445409Y-74478085D01*
X173486890Y-74474000D01*
X174088110Y-74474000D01*
X174129591Y-74478085D01*
G37*
G36*
X172554591Y-74478085D02*
G01*
X172588569Y-74488393D01*
X172619890Y-74505134D01*
X172647339Y-74527661D01*
X172669866Y-74555110D01*
X172686607Y-74586431D01*
X172696915Y-74620409D01*
X172701000Y-74661890D01*
X172701000Y-75338110D01*
X172696915Y-75379591D01*
X172686607Y-75413569D01*
X172669866Y-75444890D01*
X172647339Y-75472339D01*
X172619890Y-75494866D01*
X172588569Y-75511607D01*
X172554591Y-75521915D01*
X172513110Y-75526000D01*
X171911890Y-75526000D01*
X171870409Y-75521915D01*
X171836431Y-75511607D01*
X171805110Y-75494866D01*
X171777661Y-75472339D01*
X171755134Y-75444890D01*
X171738393Y-75413569D01*
X171728085Y-75379591D01*
X171724000Y-75338110D01*
X171724000Y-74661890D01*
X171728085Y-74620409D01*
X171738393Y-74586431D01*
X171755134Y-74555110D01*
X171777661Y-74527661D01*
X171805110Y-74505134D01*
X171836431Y-74488393D01*
X171870409Y-74478085D01*
X171911890Y-74474000D01*
X172513110Y-74474000D01*
X172554591Y-74478085D01*
G37*
G36*
X180879591Y-74303085D02*
G01*
X180913569Y-74313393D01*
X180944890Y-74330134D01*
X180972339Y-74352661D01*
X180994866Y-74380110D01*
X181011607Y-74411431D01*
X181021915Y-74445409D01*
X181026000Y-74486890D01*
X181026000Y-75088110D01*
X181021915Y-75129591D01*
X181011607Y-75163569D01*
X180994866Y-75194890D01*
X180972339Y-75222339D01*
X180944890Y-75244866D01*
X180913569Y-75261607D01*
X180879591Y-75271915D01*
X180838110Y-75276000D01*
X180161890Y-75276000D01*
X180120409Y-75271915D01*
X180086431Y-75261607D01*
X180055110Y-75244866D01*
X180027661Y-75222339D01*
X180005134Y-75194890D01*
X179988393Y-75163569D01*
X179978085Y-75129591D01*
X179974000Y-75088110D01*
X179974000Y-74486890D01*
X179978085Y-74445409D01*
X179988393Y-74411431D01*
X180005134Y-74380110D01*
X180027661Y-74352661D01*
X180055110Y-74330134D01*
X180086431Y-74313393D01*
X180120409Y-74303085D01*
X180161890Y-74299000D01*
X180838110Y-74299000D01*
X180879591Y-74303085D01*
G37*
G36*
X182879591Y-74303085D02*
G01*
X182913569Y-74313393D01*
X182944890Y-74330134D01*
X182972339Y-74352661D01*
X182994866Y-74380110D01*
X183011607Y-74411431D01*
X183021915Y-74445409D01*
X183026000Y-74486890D01*
X183026000Y-75088110D01*
X183021915Y-75129591D01*
X183011607Y-75163569D01*
X182994866Y-75194890D01*
X182972339Y-75222339D01*
X182944890Y-75244866D01*
X182913569Y-75261607D01*
X182879591Y-75271915D01*
X182838110Y-75276000D01*
X182161890Y-75276000D01*
X182120409Y-75271915D01*
X182086431Y-75261607D01*
X182055110Y-75244866D01*
X182027661Y-75222339D01*
X182005134Y-75194890D01*
X181988393Y-75163569D01*
X181978085Y-75129591D01*
X181974000Y-75088110D01*
X181974000Y-74486890D01*
X181978085Y-74445409D01*
X181988393Y-74411431D01*
X182005134Y-74380110D01*
X182027661Y-74352661D01*
X182055110Y-74330134D01*
X182086431Y-74313393D01*
X182120409Y-74303085D01*
X182161890Y-74299000D01*
X182838110Y-74299000D01*
X182879591Y-74303085D01*
G37*
G36*
X168551000Y-75061000D02*
G01*
X166449000Y-75061000D01*
X166449000Y-74059000D01*
X168551000Y-74059000D01*
X168551000Y-75061000D01*
G37*
G36*
X150551000Y-75061000D02*
G01*
X148449000Y-75061000D01*
X148449000Y-74059000D01*
X150551000Y-74059000D01*
X150551000Y-75061000D01*
G37*
G36*
X137554591Y-73978085D02*
G01*
X137588569Y-73988393D01*
X137619890Y-74005134D01*
X137647339Y-74027661D01*
X137669866Y-74055110D01*
X137686607Y-74086431D01*
X137696915Y-74120409D01*
X137701000Y-74161890D01*
X137701000Y-74838110D01*
X137696915Y-74879591D01*
X137686607Y-74913569D01*
X137669866Y-74944890D01*
X137647339Y-74972339D01*
X137619890Y-74994866D01*
X137588569Y-75011607D01*
X137554591Y-75021915D01*
X137513110Y-75026000D01*
X136911890Y-75026000D01*
X136870409Y-75021915D01*
X136836431Y-75011607D01*
X136805110Y-74994866D01*
X136777661Y-74972339D01*
X136755134Y-74944890D01*
X136738393Y-74913569D01*
X136728085Y-74879591D01*
X136724000Y-74838110D01*
X136724000Y-74161890D01*
X136728085Y-74120409D01*
X136738393Y-74086431D01*
X136755134Y-74055110D01*
X136777661Y-74027661D01*
X136805110Y-74005134D01*
X136836431Y-73988393D01*
X136870409Y-73978085D01*
X136911890Y-73974000D01*
X137513110Y-73974000D01*
X137554591Y-73978085D01*
G37*
G36*
X139129591Y-73978085D02*
G01*
X139163569Y-73988393D01*
X139194890Y-74005134D01*
X139222339Y-74027661D01*
X139244866Y-74055110D01*
X139261607Y-74086431D01*
X139271915Y-74120409D01*
X139276000Y-74161890D01*
X139276000Y-74838110D01*
X139271915Y-74879591D01*
X139261607Y-74913569D01*
X139244866Y-74944890D01*
X139222339Y-74972339D01*
X139194890Y-74994866D01*
X139163569Y-75011607D01*
X139129591Y-75021915D01*
X139088110Y-75026000D01*
X138486890Y-75026000D01*
X138445409Y-75021915D01*
X138411431Y-75011607D01*
X138380110Y-74994866D01*
X138352661Y-74972339D01*
X138330134Y-74944890D01*
X138313393Y-74913569D01*
X138303085Y-74879591D01*
X138299000Y-74838110D01*
X138299000Y-74161890D01*
X138303085Y-74120409D01*
X138313393Y-74086431D01*
X138330134Y-74055110D01*
X138352661Y-74027661D01*
X138380110Y-74005134D01*
X138411431Y-73988393D01*
X138445409Y-73978085D01*
X138486890Y-73974000D01*
X139088110Y-73974000D01*
X139129591Y-73978085D01*
G37*
G36*
X130587928Y-74192764D02*
G01*
X130609009Y-74199160D01*
X130628445Y-74209548D01*
X130645476Y-74223524D01*
X130659452Y-74240555D01*
X130669840Y-74259991D01*
X130676236Y-74281072D01*
X130679000Y-74309140D01*
X130679000Y-74772860D01*
X130676236Y-74800928D01*
X130669840Y-74822009D01*
X130659452Y-74841445D01*
X130645476Y-74858476D01*
X130628445Y-74872452D01*
X130609009Y-74882840D01*
X130587928Y-74889236D01*
X130559860Y-74892000D01*
X128746140Y-74892000D01*
X128718072Y-74889236D01*
X128696991Y-74882840D01*
X128677555Y-74872452D01*
X128660524Y-74858476D01*
X128646548Y-74841445D01*
X128636160Y-74822009D01*
X128629764Y-74800928D01*
X128627000Y-74772860D01*
X128627000Y-74309140D01*
X128629764Y-74281072D01*
X128636160Y-74259991D01*
X128646548Y-74240555D01*
X128660524Y-74223524D01*
X128677555Y-74209548D01*
X128696991Y-74199160D01*
X128718072Y-74192764D01*
X128746140Y-74190000D01*
X130559860Y-74190000D01*
X130587928Y-74192764D01*
G37*
G36*
X135537928Y-74192764D02*
G01*
X135559009Y-74199160D01*
X135578445Y-74209548D01*
X135595476Y-74223524D01*
X135609452Y-74240555D01*
X135619840Y-74259991D01*
X135626236Y-74281072D01*
X135629000Y-74309140D01*
X135629000Y-74772860D01*
X135626236Y-74800928D01*
X135619840Y-74822009D01*
X135609452Y-74841445D01*
X135595476Y-74858476D01*
X135578445Y-74872452D01*
X135559009Y-74882840D01*
X135537928Y-74889236D01*
X135509860Y-74892000D01*
X133696140Y-74892000D01*
X133668072Y-74889236D01*
X133646991Y-74882840D01*
X133627555Y-74872452D01*
X133610524Y-74858476D01*
X133596548Y-74841445D01*
X133586160Y-74822009D01*
X133579764Y-74800928D01*
X133577000Y-74772860D01*
X133577000Y-74309140D01*
X133579764Y-74281072D01*
X133586160Y-74259991D01*
X133596548Y-74240555D01*
X133610524Y-74223524D01*
X133627555Y-74209548D01*
X133646991Y-74199160D01*
X133668072Y-74192764D01*
X133696140Y-74190000D01*
X135509860Y-74190000D01*
X135537928Y-74192764D01*
G37*
G36*
X120279000Y-74443000D02*
G01*
X118377000Y-74443000D01*
X118377000Y-73241000D01*
X120279000Y-73241000D01*
X120279000Y-74443000D01*
G37*
G36*
X126479000Y-74443000D02*
G01*
X124577000Y-74443000D01*
X124577000Y-73241000D01*
X126479000Y-73241000D01*
X126479000Y-74443000D01*
G37*
G36*
X147418604Y-72578347D02*
G01*
X147455144Y-72589432D01*
X147488821Y-72607433D01*
X147518341Y-72631659D01*
X147542567Y-72661179D01*
X147560568Y-72694856D01*
X147571653Y-72731396D01*
X147576000Y-72775538D01*
X147576000Y-74224462D01*
X147571653Y-74268604D01*
X147560568Y-74305144D01*
X147542567Y-74338821D01*
X147518341Y-74368341D01*
X147488821Y-74392567D01*
X147455144Y-74410568D01*
X147418604Y-74421653D01*
X147374462Y-74426000D01*
X146425538Y-74426000D01*
X146381396Y-74421653D01*
X146344856Y-74410568D01*
X146311179Y-74392567D01*
X146281659Y-74368341D01*
X146257433Y-74338821D01*
X146239432Y-74305144D01*
X146228347Y-74268604D01*
X146224000Y-74224462D01*
X146224000Y-72775538D01*
X146228347Y-72731396D01*
X146239432Y-72694856D01*
X146257433Y-72661179D01*
X146281659Y-72631659D01*
X146311179Y-72607433D01*
X146344856Y-72589432D01*
X146381396Y-72578347D01*
X146425538Y-72574000D01*
X147374462Y-72574000D01*
X147418604Y-72578347D01*
G37*
G36*
X144618604Y-72578347D02*
G01*
X144655144Y-72589432D01*
X144688821Y-72607433D01*
X144718341Y-72631659D01*
X144742567Y-72661179D01*
X144760568Y-72694856D01*
X144771653Y-72731396D01*
X144776000Y-72775538D01*
X144776000Y-74224462D01*
X144771653Y-74268604D01*
X144760568Y-74305144D01*
X144742567Y-74338821D01*
X144718341Y-74368341D01*
X144688821Y-74392567D01*
X144655144Y-74410568D01*
X144618604Y-74421653D01*
X144574462Y-74426000D01*
X143625538Y-74426000D01*
X143581396Y-74421653D01*
X143544856Y-74410568D01*
X143511179Y-74392567D01*
X143481659Y-74368341D01*
X143457433Y-74338821D01*
X143439432Y-74305144D01*
X143428347Y-74268604D01*
X143424000Y-74224462D01*
X143424000Y-72775538D01*
X143428347Y-72731396D01*
X143439432Y-72694856D01*
X143457433Y-72661179D01*
X143481659Y-72631659D01*
X143511179Y-72607433D01*
X143544856Y-72589432D01*
X143581396Y-72578347D01*
X143625538Y-72574000D01*
X144574462Y-72574000D01*
X144618604Y-72578347D01*
G37*
G36*
X150551000Y-73791000D02*
G01*
X148449000Y-73791000D01*
X148449000Y-72789000D01*
X150551000Y-72789000D01*
X150551000Y-73791000D01*
G37*
G36*
X168551000Y-73791000D02*
G01*
X166449000Y-73791000D01*
X166449000Y-72789000D01*
X168551000Y-72789000D01*
X168551000Y-73791000D01*
G37*
G36*
X180879591Y-72728085D02*
G01*
X180913569Y-72738393D01*
X180944890Y-72755134D01*
X180972339Y-72777661D01*
X180994866Y-72805110D01*
X181011607Y-72836431D01*
X181021915Y-72870409D01*
X181026000Y-72911890D01*
X181026000Y-73513110D01*
X181021915Y-73554591D01*
X181011607Y-73588569D01*
X180994866Y-73619890D01*
X180972339Y-73647339D01*
X180944890Y-73669866D01*
X180913569Y-73686607D01*
X180879591Y-73696915D01*
X180838110Y-73701000D01*
X180161890Y-73701000D01*
X180120409Y-73696915D01*
X180086431Y-73686607D01*
X180055110Y-73669866D01*
X180027661Y-73647339D01*
X180005134Y-73619890D01*
X179988393Y-73588569D01*
X179978085Y-73554591D01*
X179974000Y-73513110D01*
X179974000Y-72911890D01*
X179978085Y-72870409D01*
X179988393Y-72836431D01*
X180005134Y-72805110D01*
X180027661Y-72777661D01*
X180055110Y-72755134D01*
X180086431Y-72738393D01*
X180120409Y-72728085D01*
X180161890Y-72724000D01*
X180838110Y-72724000D01*
X180879591Y-72728085D01*
G37*
G36*
X182879591Y-72728085D02*
G01*
X182913569Y-72738393D01*
X182944890Y-72755134D01*
X182972339Y-72777661D01*
X182994866Y-72805110D01*
X183011607Y-72836431D01*
X183021915Y-72870409D01*
X183026000Y-72911890D01*
X183026000Y-73513110D01*
X183021915Y-73554591D01*
X183011607Y-73588569D01*
X182994866Y-73619890D01*
X182972339Y-73647339D01*
X182944890Y-73669866D01*
X182913569Y-73686607D01*
X182879591Y-73696915D01*
X182838110Y-73701000D01*
X182161890Y-73701000D01*
X182120409Y-73696915D01*
X182086431Y-73686607D01*
X182055110Y-73669866D01*
X182027661Y-73647339D01*
X182005134Y-73619890D01*
X181988393Y-73588569D01*
X181978085Y-73554591D01*
X181974000Y-73513110D01*
X181974000Y-72911890D01*
X181978085Y-72870409D01*
X181988393Y-72836431D01*
X182005134Y-72805110D01*
X182027661Y-72777661D01*
X182055110Y-72755134D01*
X182086431Y-72738393D01*
X182120409Y-72728085D01*
X182161890Y-72724000D01*
X182838110Y-72724000D01*
X182879591Y-72728085D01*
G37*
G36*
X135537928Y-72922764D02*
G01*
X135559009Y-72929160D01*
X135578445Y-72939548D01*
X135595476Y-72953524D01*
X135609452Y-72970555D01*
X135619840Y-72989991D01*
X135626236Y-73011072D01*
X135629000Y-73039140D01*
X135629000Y-73502860D01*
X135626236Y-73530928D01*
X135619840Y-73552009D01*
X135609452Y-73571445D01*
X135595476Y-73588476D01*
X135578445Y-73602452D01*
X135559009Y-73612840D01*
X135537928Y-73619236D01*
X135509860Y-73622000D01*
X133696140Y-73622000D01*
X133668072Y-73619236D01*
X133646991Y-73612840D01*
X133627555Y-73602452D01*
X133610524Y-73588476D01*
X133596548Y-73571445D01*
X133586160Y-73552009D01*
X133579764Y-73530928D01*
X133577000Y-73502860D01*
X133577000Y-73039140D01*
X133579764Y-73011072D01*
X133586160Y-72989991D01*
X133596548Y-72970555D01*
X133610524Y-72953524D01*
X133627555Y-72939548D01*
X133646991Y-72929160D01*
X133668072Y-72922764D01*
X133696140Y-72920000D01*
X135509860Y-72920000D01*
X135537928Y-72922764D01*
G37*
G36*
X130587928Y-72922764D02*
G01*
X130609009Y-72929160D01*
X130628445Y-72939548D01*
X130645476Y-72953524D01*
X130659452Y-72970555D01*
X130669840Y-72989991D01*
X130676236Y-73011072D01*
X130679000Y-73039140D01*
X130679000Y-73502860D01*
X130676236Y-73530928D01*
X130669840Y-73552009D01*
X130659452Y-73571445D01*
X130645476Y-73588476D01*
X130628445Y-73602452D01*
X130609009Y-73612840D01*
X130587928Y-73619236D01*
X130559860Y-73622000D01*
X128746140Y-73622000D01*
X128718072Y-73619236D01*
X128696991Y-73612840D01*
X128677555Y-73602452D01*
X128660524Y-73588476D01*
X128646548Y-73571445D01*
X128636160Y-73552009D01*
X128629764Y-73530928D01*
X128627000Y-73502860D01*
X128627000Y-73039140D01*
X128629764Y-73011072D01*
X128636160Y-72989991D01*
X128646548Y-72970555D01*
X128660524Y-72953524D01*
X128677555Y-72939548D01*
X128696991Y-72929160D01*
X128718072Y-72922764D01*
X128746140Y-72920000D01*
X130559860Y-72920000D01*
X130587928Y-72922764D01*
G37*
G36*
X139129591Y-71978085D02*
G01*
X139163569Y-71988393D01*
X139194890Y-72005134D01*
X139222339Y-72027661D01*
X139244866Y-72055110D01*
X139261607Y-72086431D01*
X139271915Y-72120409D01*
X139276000Y-72161890D01*
X139276000Y-72838110D01*
X139271915Y-72879591D01*
X139261607Y-72913569D01*
X139244866Y-72944890D01*
X139222339Y-72972339D01*
X139194890Y-72994866D01*
X139163569Y-73011607D01*
X139129591Y-73021915D01*
X139088110Y-73026000D01*
X138486890Y-73026000D01*
X138445409Y-73021915D01*
X138411431Y-73011607D01*
X138380110Y-72994866D01*
X138352661Y-72972339D01*
X138330134Y-72944890D01*
X138313393Y-72913569D01*
X138303085Y-72879591D01*
X138299000Y-72838110D01*
X138299000Y-72161890D01*
X138303085Y-72120409D01*
X138313393Y-72086431D01*
X138330134Y-72055110D01*
X138352661Y-72027661D01*
X138380110Y-72005134D01*
X138411431Y-71988393D01*
X138445409Y-71978085D01*
X138486890Y-71974000D01*
X139088110Y-71974000D01*
X139129591Y-71978085D01*
G37*
G36*
X137554591Y-71978085D02*
G01*
X137588569Y-71988393D01*
X137619890Y-72005134D01*
X137647339Y-72027661D01*
X137669866Y-72055110D01*
X137686607Y-72086431D01*
X137696915Y-72120409D01*
X137701000Y-72161890D01*
X137701000Y-72838110D01*
X137696915Y-72879591D01*
X137686607Y-72913569D01*
X137669866Y-72944890D01*
X137647339Y-72972339D01*
X137619890Y-72994866D01*
X137588569Y-73011607D01*
X137554591Y-73021915D01*
X137513110Y-73026000D01*
X136911890Y-73026000D01*
X136870409Y-73021915D01*
X136836431Y-73011607D01*
X136805110Y-72994866D01*
X136777661Y-72972339D01*
X136755134Y-72944890D01*
X136738393Y-72913569D01*
X136728085Y-72879591D01*
X136724000Y-72838110D01*
X136724000Y-72161890D01*
X136728085Y-72120409D01*
X136738393Y-72086431D01*
X136755134Y-72055110D01*
X136777661Y-72027661D01*
X136805110Y-72005134D01*
X136836431Y-71988393D01*
X136870409Y-71978085D01*
X136911890Y-71974000D01*
X137513110Y-71974000D01*
X137554591Y-71978085D01*
G37*
G36*
X150551000Y-72521000D02*
G01*
X148449000Y-72521000D01*
X148449000Y-71519000D01*
X150551000Y-71519000D01*
X150551000Y-72521000D01*
G37*
G36*
X168551000Y-72521000D02*
G01*
X166449000Y-72521000D01*
X166449000Y-71519000D01*
X168551000Y-71519000D01*
X168551000Y-72521000D01*
G37*
G36*
X135537928Y-71652764D02*
G01*
X135559009Y-71659160D01*
X135578445Y-71669548D01*
X135595476Y-71683524D01*
X135609452Y-71700555D01*
X135619840Y-71719991D01*
X135626236Y-71741072D01*
X135629000Y-71769140D01*
X135629000Y-72232860D01*
X135626236Y-72260928D01*
X135619840Y-72282009D01*
X135609452Y-72301445D01*
X135595476Y-72318476D01*
X135578445Y-72332452D01*
X135559009Y-72342840D01*
X135537928Y-72349236D01*
X135509860Y-72352000D01*
X133696140Y-72352000D01*
X133668072Y-72349236D01*
X133646991Y-72342840D01*
X133627555Y-72332452D01*
X133610524Y-72318476D01*
X133596548Y-72301445D01*
X133586160Y-72282009D01*
X133579764Y-72260928D01*
X133577000Y-72232860D01*
X133577000Y-71769140D01*
X133579764Y-71741072D01*
X133586160Y-71719991D01*
X133596548Y-71700555D01*
X133610524Y-71683524D01*
X133627555Y-71669548D01*
X133646991Y-71659160D01*
X133668072Y-71652764D01*
X133696140Y-71650000D01*
X135509860Y-71650000D01*
X135537928Y-71652764D01*
G37*
G36*
X130587928Y-71652764D02*
G01*
X130609009Y-71659160D01*
X130628445Y-71669548D01*
X130645476Y-71683524D01*
X130659452Y-71700555D01*
X130669840Y-71719991D01*
X130676236Y-71741072D01*
X130679000Y-71769140D01*
X130679000Y-72232860D01*
X130676236Y-72260928D01*
X130669840Y-72282009D01*
X130659452Y-72301445D01*
X130645476Y-72318476D01*
X130628445Y-72332452D01*
X130609009Y-72342840D01*
X130587928Y-72349236D01*
X130559860Y-72352000D01*
X128746140Y-72352000D01*
X128718072Y-72349236D01*
X128696991Y-72342840D01*
X128677555Y-72332452D01*
X128660524Y-72318476D01*
X128646548Y-72301445D01*
X128636160Y-72282009D01*
X128629764Y-72260928D01*
X128627000Y-72232860D01*
X128627000Y-71769140D01*
X128629764Y-71741072D01*
X128636160Y-71719991D01*
X128646548Y-71700555D01*
X128660524Y-71683524D01*
X128677555Y-71669548D01*
X128696991Y-71659160D01*
X128718072Y-71652764D01*
X128746140Y-71650000D01*
X130559860Y-71650000D01*
X130587928Y-71652764D01*
G37*
G36*
X123106818Y-69874696D02*
G01*
X123159300Y-69890617D01*
X123183333Y-69895398D01*
X123195586Y-69896000D01*
X123590000Y-69896000D01*
X123590000Y-70431341D01*
X123590602Y-70443593D01*
X123592907Y-70467000D01*
X123590602Y-70490407D01*
X123590000Y-70502659D01*
X123590000Y-71998000D01*
X121994999Y-71998000D01*
X121970613Y-72000402D01*
X121947164Y-72007515D01*
X121941579Y-72010500D01*
X121068000Y-72010500D01*
X121068000Y-71647999D01*
X121065598Y-71623613D01*
X121058485Y-71600164D01*
X121046934Y-71578553D01*
X121031389Y-71559611D01*
X121012447Y-71544066D01*
X120990836Y-71532515D01*
X120967387Y-71525402D01*
X120943001Y-71523000D01*
X119614653Y-71523000D01*
X119612447Y-71521190D01*
X119590836Y-71509639D01*
X119567387Y-71502526D01*
X119555255Y-71500726D01*
X119471679Y-71492495D01*
X119334828Y-71450981D01*
X119334825Y-71450980D01*
X119208706Y-71383568D01*
X119098157Y-71292843D01*
X119007432Y-71182294D01*
X118940020Y-71056175D01*
X118938882Y-71052423D01*
X118898505Y-70919321D01*
X118884488Y-70777000D01*
X118898505Y-70634679D01*
X118940019Y-70497828D01*
X118940020Y-70497825D01*
X119007432Y-70371706D01*
X119098157Y-70261157D01*
X119208706Y-70170432D01*
X119334825Y-70103020D01*
X119334828Y-70103019D01*
X119471679Y-70061505D01*
X119542787Y-70054502D01*
X119578340Y-70051000D01*
X119999660Y-70051000D01*
X120106322Y-70061505D01*
X120119876Y-70065617D01*
X120143909Y-70070398D01*
X120156162Y-70071000D01*
X121863001Y-70071000D01*
X121887387Y-70068598D01*
X121910836Y-70061485D01*
X121932447Y-70049934D01*
X121951389Y-70034389D01*
X121966934Y-70015447D01*
X121978485Y-69993836D01*
X121985598Y-69970387D01*
X121988000Y-69946001D01*
X121988000Y-69896000D01*
X122382414Y-69896000D01*
X122406800Y-69893598D01*
X122418700Y-69890617D01*
X122471182Y-69874696D01*
X122559481Y-69866000D01*
X123018519Y-69866000D01*
X123106818Y-69874696D01*
G37*
G36*
X145379591Y-70803085D02*
G01*
X145413569Y-70813393D01*
X145444890Y-70830134D01*
X145472339Y-70852661D01*
X145494866Y-70880110D01*
X145511607Y-70911431D01*
X145521915Y-70945409D01*
X145526000Y-70986890D01*
X145526000Y-71588110D01*
X145521915Y-71629591D01*
X145511607Y-71663569D01*
X145494866Y-71694890D01*
X145472339Y-71722339D01*
X145444890Y-71744866D01*
X145413569Y-71761607D01*
X145379591Y-71771915D01*
X145338110Y-71776000D01*
X144661890Y-71776000D01*
X144620409Y-71771915D01*
X144586431Y-71761607D01*
X144555110Y-71744866D01*
X144527661Y-71722339D01*
X144505134Y-71694890D01*
X144488393Y-71663569D01*
X144478085Y-71629591D01*
X144474000Y-71588110D01*
X144474000Y-70986890D01*
X144478085Y-70945409D01*
X144488393Y-70911431D01*
X144505134Y-70880110D01*
X144527661Y-70852661D01*
X144555110Y-70830134D01*
X144586431Y-70813393D01*
X144620409Y-70803085D01*
X144661890Y-70799000D01*
X145338110Y-70799000D01*
X145379591Y-70803085D01*
G37*
G36*
X147379591Y-70803085D02*
G01*
X147413569Y-70813393D01*
X147444890Y-70830134D01*
X147472339Y-70852661D01*
X147494866Y-70880110D01*
X147511607Y-70911431D01*
X147521915Y-70945409D01*
X147526000Y-70986890D01*
X147526000Y-71588110D01*
X147521915Y-71629591D01*
X147511607Y-71663569D01*
X147494866Y-71694890D01*
X147472339Y-71722339D01*
X147444890Y-71744866D01*
X147413569Y-71761607D01*
X147379591Y-71771915D01*
X147338110Y-71776000D01*
X146661890Y-71776000D01*
X146620409Y-71771915D01*
X146586431Y-71761607D01*
X146555110Y-71744866D01*
X146527661Y-71722339D01*
X146505134Y-71694890D01*
X146488393Y-71663569D01*
X146478085Y-71629591D01*
X146474000Y-71588110D01*
X146474000Y-70986890D01*
X146478085Y-70945409D01*
X146488393Y-70911431D01*
X146505134Y-70880110D01*
X146527661Y-70852661D01*
X146555110Y-70830134D01*
X146586431Y-70813393D01*
X146620409Y-70803085D01*
X146661890Y-70799000D01*
X147338110Y-70799000D01*
X147379591Y-70803085D01*
G37*
G36*
X143379591Y-70803085D02*
G01*
X143413569Y-70813393D01*
X143444890Y-70830134D01*
X143472339Y-70852661D01*
X143494866Y-70880110D01*
X143511607Y-70911431D01*
X143521915Y-70945409D01*
X143526000Y-70986890D01*
X143526000Y-71588110D01*
X143521915Y-71629591D01*
X143511607Y-71663569D01*
X143494866Y-71694890D01*
X143472339Y-71722339D01*
X143444890Y-71744866D01*
X143413569Y-71761607D01*
X143379591Y-71771915D01*
X143338110Y-71776000D01*
X142661890Y-71776000D01*
X142620409Y-71771915D01*
X142586431Y-71761607D01*
X142555110Y-71744866D01*
X142527661Y-71722339D01*
X142505134Y-71694890D01*
X142488393Y-71663569D01*
X142478085Y-71629591D01*
X142474000Y-71588110D01*
X142474000Y-70986890D01*
X142478085Y-70945409D01*
X142488393Y-70911431D01*
X142505134Y-70880110D01*
X142527661Y-70852661D01*
X142555110Y-70830134D01*
X142586431Y-70813393D01*
X142620409Y-70803085D01*
X142661890Y-70799000D01*
X143338110Y-70799000D01*
X143379591Y-70803085D01*
G37*
G36*
X150551000Y-71251000D02*
G01*
X148449000Y-71251000D01*
X148449000Y-70249000D01*
X150551000Y-70249000D01*
X150551000Y-71251000D01*
G37*
G36*
X168551000Y-71251000D02*
G01*
X166449000Y-71251000D01*
X166449000Y-70249000D01*
X168551000Y-70249000D01*
X168551000Y-71251000D01*
G37*
G36*
X130587928Y-70382764D02*
G01*
X130609009Y-70389160D01*
X130628445Y-70399548D01*
X130645476Y-70413524D01*
X130659452Y-70430555D01*
X130669840Y-70449991D01*
X130676236Y-70471072D01*
X130679000Y-70499140D01*
X130679000Y-70962860D01*
X130676236Y-70990928D01*
X130669840Y-71012009D01*
X130659452Y-71031445D01*
X130645476Y-71048476D01*
X130628445Y-71062452D01*
X130609009Y-71072840D01*
X130587928Y-71079236D01*
X130559860Y-71082000D01*
X128746140Y-71082000D01*
X128718072Y-71079236D01*
X128696991Y-71072840D01*
X128677555Y-71062452D01*
X128660524Y-71048476D01*
X128646548Y-71031445D01*
X128636160Y-71012009D01*
X128629764Y-70990928D01*
X128627000Y-70962860D01*
X128627000Y-70499140D01*
X128629764Y-70471072D01*
X128636160Y-70449991D01*
X128646548Y-70430555D01*
X128660524Y-70413524D01*
X128677555Y-70399548D01*
X128696991Y-70389160D01*
X128718072Y-70382764D01*
X128746140Y-70380000D01*
X130559860Y-70380000D01*
X130587928Y-70382764D01*
G37*
G36*
X135537928Y-70382764D02*
G01*
X135559009Y-70389160D01*
X135578445Y-70399548D01*
X135595476Y-70413524D01*
X135609452Y-70430555D01*
X135619840Y-70449991D01*
X135626236Y-70471072D01*
X135629000Y-70499140D01*
X135629000Y-70962860D01*
X135626236Y-70990928D01*
X135619840Y-71012009D01*
X135609452Y-71031445D01*
X135595476Y-71048476D01*
X135578445Y-71062452D01*
X135559009Y-71072840D01*
X135537928Y-71079236D01*
X135509860Y-71082000D01*
X133696140Y-71082000D01*
X133668072Y-71079236D01*
X133646991Y-71072840D01*
X133627555Y-71062452D01*
X133610524Y-71048476D01*
X133596548Y-71031445D01*
X133586160Y-71012009D01*
X133579764Y-70990928D01*
X133577000Y-70962860D01*
X133577000Y-70499140D01*
X133579764Y-70471072D01*
X133586160Y-70449991D01*
X133596548Y-70430555D01*
X133610524Y-70413524D01*
X133627555Y-70399548D01*
X133646991Y-70389160D01*
X133668072Y-70382764D01*
X133696140Y-70380000D01*
X135509860Y-70380000D01*
X135537928Y-70382764D01*
G37*
G36*
X137554591Y-69978085D02*
G01*
X137588569Y-69988393D01*
X137619890Y-70005134D01*
X137647339Y-70027661D01*
X137669866Y-70055110D01*
X137686607Y-70086431D01*
X137696915Y-70120409D01*
X137701000Y-70161890D01*
X137701000Y-70838110D01*
X137696915Y-70879591D01*
X137686607Y-70913569D01*
X137669866Y-70944890D01*
X137647339Y-70972339D01*
X137619890Y-70994866D01*
X137588569Y-71011607D01*
X137554591Y-71021915D01*
X137513110Y-71026000D01*
X136911890Y-71026000D01*
X136870409Y-71021915D01*
X136836431Y-71011607D01*
X136805110Y-70994866D01*
X136777661Y-70972339D01*
X136755134Y-70944890D01*
X136738393Y-70913569D01*
X136728085Y-70879591D01*
X136724000Y-70838110D01*
X136724000Y-70161890D01*
X136728085Y-70120409D01*
X136738393Y-70086431D01*
X136755134Y-70055110D01*
X136777661Y-70027661D01*
X136805110Y-70005134D01*
X136836431Y-69988393D01*
X136870409Y-69978085D01*
X136911890Y-69974000D01*
X137513110Y-69974000D01*
X137554591Y-69978085D01*
G37*
G36*
X139129591Y-69978085D02*
G01*
X139163569Y-69988393D01*
X139194890Y-70005134D01*
X139222339Y-70027661D01*
X139244866Y-70055110D01*
X139261607Y-70086431D01*
X139271915Y-70120409D01*
X139276000Y-70161890D01*
X139276000Y-70838110D01*
X139271915Y-70879591D01*
X139261607Y-70913569D01*
X139244866Y-70944890D01*
X139222339Y-70972339D01*
X139194890Y-70994866D01*
X139163569Y-71011607D01*
X139129591Y-71021915D01*
X139088110Y-71026000D01*
X138486890Y-71026000D01*
X138445409Y-71021915D01*
X138411431Y-71011607D01*
X138380110Y-70994866D01*
X138352661Y-70972339D01*
X138330134Y-70944890D01*
X138313393Y-70913569D01*
X138303085Y-70879591D01*
X138299000Y-70838110D01*
X138299000Y-70161890D01*
X138303085Y-70120409D01*
X138313393Y-70086431D01*
X138330134Y-70055110D01*
X138352661Y-70027661D01*
X138380110Y-70005134D01*
X138411431Y-69988393D01*
X138445409Y-69978085D01*
X138486890Y-69974000D01*
X139088110Y-69974000D01*
X139129591Y-69978085D01*
G37*
G36*
X147379591Y-69228085D02*
G01*
X147413569Y-69238393D01*
X147444890Y-69255134D01*
X147472339Y-69277661D01*
X147494866Y-69305110D01*
X147511607Y-69336431D01*
X147521915Y-69370409D01*
X147526000Y-69411890D01*
X147526000Y-70013110D01*
X147521915Y-70054591D01*
X147511607Y-70088569D01*
X147494866Y-70119890D01*
X147472339Y-70147339D01*
X147444890Y-70169866D01*
X147413569Y-70186607D01*
X147379591Y-70196915D01*
X147338110Y-70201000D01*
X146661890Y-70201000D01*
X146620409Y-70196915D01*
X146586431Y-70186607D01*
X146555110Y-70169866D01*
X146527661Y-70147339D01*
X146505134Y-70119890D01*
X146488393Y-70088569D01*
X146478085Y-70054591D01*
X146474000Y-70013110D01*
X146474000Y-69411890D01*
X146478085Y-69370409D01*
X146488393Y-69336431D01*
X146505134Y-69305110D01*
X146527661Y-69277661D01*
X146555110Y-69255134D01*
X146586431Y-69238393D01*
X146620409Y-69228085D01*
X146661890Y-69224000D01*
X147338110Y-69224000D01*
X147379591Y-69228085D01*
G37*
G36*
X143379591Y-69228085D02*
G01*
X143413569Y-69238393D01*
X143444890Y-69255134D01*
X143472339Y-69277661D01*
X143494866Y-69305110D01*
X143511607Y-69336431D01*
X143521915Y-69370409D01*
X143526000Y-69411890D01*
X143526000Y-70013110D01*
X143521915Y-70054591D01*
X143511607Y-70088569D01*
X143494866Y-70119890D01*
X143472339Y-70147339D01*
X143444890Y-70169866D01*
X143413569Y-70186607D01*
X143379591Y-70196915D01*
X143338110Y-70201000D01*
X142661890Y-70201000D01*
X142620409Y-70196915D01*
X142586431Y-70186607D01*
X142555110Y-70169866D01*
X142527661Y-70147339D01*
X142505134Y-70119890D01*
X142488393Y-70088569D01*
X142478085Y-70054591D01*
X142474000Y-70013110D01*
X142474000Y-69411890D01*
X142478085Y-69370409D01*
X142488393Y-69336431D01*
X142505134Y-69305110D01*
X142527661Y-69277661D01*
X142555110Y-69255134D01*
X142586431Y-69238393D01*
X142620409Y-69228085D01*
X142661890Y-69224000D01*
X143338110Y-69224000D01*
X143379591Y-69228085D01*
G37*
G36*
X145379591Y-69228085D02*
G01*
X145413569Y-69238393D01*
X145444890Y-69255134D01*
X145472339Y-69277661D01*
X145494866Y-69305110D01*
X145511607Y-69336431D01*
X145521915Y-69370409D01*
X145526000Y-69411890D01*
X145526000Y-70013110D01*
X145521915Y-70054591D01*
X145511607Y-70088569D01*
X145494866Y-70119890D01*
X145472339Y-70147339D01*
X145444890Y-70169866D01*
X145413569Y-70186607D01*
X145379591Y-70196915D01*
X145338110Y-70201000D01*
X144661890Y-70201000D01*
X144620409Y-70196915D01*
X144586431Y-70186607D01*
X144555110Y-70169866D01*
X144527661Y-70147339D01*
X144505134Y-70119890D01*
X144488393Y-70088569D01*
X144478085Y-70054591D01*
X144474000Y-70013110D01*
X144474000Y-69411890D01*
X144478085Y-69370409D01*
X144488393Y-69336431D01*
X144505134Y-69305110D01*
X144527661Y-69277661D01*
X144555110Y-69255134D01*
X144586431Y-69238393D01*
X144620409Y-69228085D01*
X144661890Y-69224000D01*
X145338110Y-69224000D01*
X145379591Y-69228085D01*
G37*
G36*
X120820000Y-69773000D02*
G01*
X118218000Y-69773000D01*
X118218000Y-68241000D01*
X120820000Y-68241000D01*
X120820000Y-69773000D01*
G37*
G36*
X121947164Y-64136485D02*
G01*
X121970613Y-64143598D01*
X121994999Y-64146000D01*
X123570000Y-64146000D01*
X123570000Y-65453379D01*
X123572402Y-65477765D01*
X123575383Y-65489665D01*
X123581304Y-65509182D01*
X123592907Y-65627000D01*
X123581304Y-65744818D01*
X123575383Y-65764335D01*
X123570602Y-65788368D01*
X123570000Y-65800621D01*
X123570000Y-66298759D01*
X123566066Y-66303553D01*
X123554515Y-66325164D01*
X123547402Y-66348613D01*
X123545000Y-66372999D01*
X123545000Y-69598000D01*
X121793000Y-69598000D01*
X121793000Y-66496000D01*
X121843001Y-66496000D01*
X121867387Y-66493598D01*
X121890836Y-66486485D01*
X121912447Y-66474934D01*
X121931389Y-66459389D01*
X121946934Y-66440447D01*
X121958485Y-66418836D01*
X121965598Y-66395387D01*
X121968000Y-66371001D01*
X121968000Y-66185499D01*
X121965598Y-66161113D01*
X121958485Y-66137664D01*
X121946934Y-66116053D01*
X121931389Y-66097111D01*
X121912447Y-66081566D01*
X121890836Y-66070015D01*
X121867387Y-66062902D01*
X121843001Y-66060500D01*
X121005775Y-66060500D01*
X120990836Y-66052515D01*
X120967387Y-66045402D01*
X120943001Y-66043000D01*
X119568950Y-66043000D01*
X119567387Y-66042526D01*
X119555255Y-66040726D01*
X119471679Y-66032495D01*
X119334828Y-65990981D01*
X119334825Y-65990980D01*
X119208706Y-65923568D01*
X119098157Y-65832843D01*
X119007432Y-65722294D01*
X118940020Y-65596175D01*
X118936933Y-65586000D01*
X118898505Y-65459321D01*
X118884488Y-65317000D01*
X118898505Y-65174679D01*
X118940019Y-65037828D01*
X118940020Y-65037825D01*
X119007432Y-64911706D01*
X119098157Y-64801157D01*
X119208706Y-64710432D01*
X119334825Y-64643020D01*
X119334828Y-64643019D01*
X119471679Y-64601505D01*
X119555254Y-64593274D01*
X119566686Y-64591000D01*
X120943001Y-64591000D01*
X120967387Y-64588598D01*
X120990836Y-64581485D01*
X121012447Y-64569934D01*
X121031389Y-64554389D01*
X121046934Y-64535447D01*
X121058485Y-64513836D01*
X121065598Y-64490387D01*
X121068000Y-64466001D01*
X121068000Y-64133500D01*
X121941579Y-64133500D01*
X121947164Y-64136485D01*
G37*
G36*
X181377880Y-63545776D02*
G01*
X181758593Y-63621504D01*
X182168249Y-63791189D01*
X182536929Y-64037534D01*
X182850466Y-64351071D01*
X183096811Y-64719751D01*
X183266496Y-65129407D01*
X183330937Y-65453379D01*
X183353000Y-65564295D01*
X183353000Y-66007705D01*
X183344087Y-66052515D01*
X183266496Y-66442593D01*
X183096811Y-66852249D01*
X182850466Y-67220929D01*
X182536929Y-67534466D01*
X182168249Y-67780811D01*
X181758593Y-67950496D01*
X181377880Y-68026224D01*
X181323705Y-68037000D01*
X180880295Y-68037000D01*
X180826120Y-68026224D01*
X180445407Y-67950496D01*
X180035751Y-67780811D01*
X179667071Y-67534466D01*
X179353534Y-67220929D01*
X179107189Y-66852249D01*
X178937504Y-66442593D01*
X178859913Y-66052515D01*
X178851000Y-66007705D01*
X178851000Y-65564295D01*
X178873063Y-65453379D01*
X178937504Y-65129407D01*
X179107189Y-64719751D01*
X179353534Y-64351071D01*
X179667071Y-64037534D01*
X180035751Y-63791189D01*
X180445407Y-63621504D01*
X180826120Y-63545776D01*
X180880295Y-63535000D01*
X181323705Y-63535000D01*
X181377880Y-63545776D01*
G37*
G36*
X120820000Y-67853000D02*
G01*
X118218000Y-67853000D01*
X118218000Y-66321000D01*
X120820000Y-66321000D01*
X120820000Y-67853000D01*
G37*
G36*
X133460499Y-65327445D02*
G01*
X133497995Y-65338820D01*
X133532554Y-65357292D01*
X133562847Y-65382153D01*
X133587708Y-65412446D01*
X133606180Y-65447005D01*
X133617555Y-65484501D01*
X133622000Y-65529638D01*
X133622000Y-66268362D01*
X133617555Y-66313499D01*
X133606180Y-66350995D01*
X133587708Y-66385554D01*
X133562847Y-66415847D01*
X133532554Y-66440708D01*
X133497995Y-66459180D01*
X133460499Y-66470555D01*
X133415362Y-66475000D01*
X132776638Y-66475000D01*
X132731501Y-66470555D01*
X132694005Y-66459180D01*
X132659446Y-66440708D01*
X132629153Y-66415847D01*
X132604292Y-66385554D01*
X132585820Y-66350995D01*
X132574445Y-66313499D01*
X132570000Y-66268362D01*
X132570000Y-65529638D01*
X132574445Y-65484501D01*
X132585820Y-65447005D01*
X132604292Y-65412446D01*
X132629153Y-65382153D01*
X132659446Y-65357292D01*
X132694005Y-65338820D01*
X132731501Y-65327445D01*
X132776638Y-65323000D01*
X133415362Y-65323000D01*
X133460499Y-65327445D01*
G37*
G36*
X131428499Y-65327445D02*
G01*
X131465995Y-65338820D01*
X131500554Y-65357292D01*
X131530847Y-65382153D01*
X131555708Y-65412446D01*
X131574180Y-65447005D01*
X131585555Y-65484501D01*
X131590000Y-65529638D01*
X131590000Y-66268362D01*
X131585555Y-66313499D01*
X131574180Y-66350995D01*
X131555708Y-66385554D01*
X131530847Y-66415847D01*
X131500554Y-66440708D01*
X131465995Y-66459180D01*
X131428499Y-66470555D01*
X131383362Y-66475000D01*
X130744638Y-66475000D01*
X130699501Y-66470555D01*
X130662005Y-66459180D01*
X130627446Y-66440708D01*
X130597153Y-66415847D01*
X130572292Y-66385554D01*
X130553820Y-66350995D01*
X130542445Y-66313499D01*
X130538000Y-66268362D01*
X130538000Y-65529638D01*
X130542445Y-65484501D01*
X130553820Y-65447005D01*
X130572292Y-65412446D01*
X130597153Y-65382153D01*
X130627446Y-65357292D01*
X130662005Y-65338820D01*
X130699501Y-65327445D01*
X130744638Y-65323000D01*
X131383362Y-65323000D01*
X131428499Y-65327445D01*
G37*
G36*
X129396499Y-65327445D02*
G01*
X129433995Y-65338820D01*
X129468554Y-65357292D01*
X129498847Y-65382153D01*
X129523708Y-65412446D01*
X129542180Y-65447005D01*
X129553555Y-65484501D01*
X129558000Y-65529638D01*
X129558000Y-66268362D01*
X129553555Y-66313499D01*
X129542180Y-66350995D01*
X129523708Y-66385554D01*
X129498847Y-66415847D01*
X129468554Y-66440708D01*
X129433995Y-66459180D01*
X129396499Y-66470555D01*
X129351362Y-66475000D01*
X128712638Y-66475000D01*
X128667501Y-66470555D01*
X128630005Y-66459180D01*
X128595446Y-66440708D01*
X128565153Y-66415847D01*
X128540292Y-66385554D01*
X128521820Y-66350995D01*
X128510445Y-66313499D01*
X128506000Y-66268362D01*
X128506000Y-65529638D01*
X128510445Y-65484501D01*
X128521820Y-65447005D01*
X128540292Y-65412446D01*
X128565153Y-65382153D01*
X128595446Y-65357292D01*
X128630005Y-65338820D01*
X128667501Y-65327445D01*
X128712638Y-65323000D01*
X129351362Y-65323000D01*
X129396499Y-65327445D01*
G37*
G36*
X127364499Y-65327445D02*
G01*
X127401995Y-65338820D01*
X127436554Y-65357292D01*
X127466847Y-65382153D01*
X127491708Y-65412446D01*
X127510180Y-65447005D01*
X127521555Y-65484501D01*
X127526000Y-65529638D01*
X127526000Y-66268362D01*
X127521555Y-66313499D01*
X127510180Y-66350995D01*
X127491708Y-66385554D01*
X127466847Y-66415847D01*
X127436554Y-66440708D01*
X127401995Y-66459180D01*
X127364499Y-66470555D01*
X127319362Y-66475000D01*
X126680638Y-66475000D01*
X126635501Y-66470555D01*
X126598005Y-66459180D01*
X126563446Y-66440708D01*
X126533153Y-66415847D01*
X126508292Y-66385554D01*
X126489820Y-66350995D01*
X126478445Y-66313499D01*
X126474000Y-66268362D01*
X126474000Y-65529638D01*
X126478445Y-65484501D01*
X126489820Y-65447005D01*
X126508292Y-65412446D01*
X126533153Y-65382153D01*
X126563446Y-65357292D01*
X126598005Y-65338820D01*
X126635501Y-65327445D01*
X126680638Y-65323000D01*
X127319362Y-65323000D01*
X127364499Y-65327445D01*
G37*
G36*
X135379591Y-65303085D02*
G01*
X135413569Y-65313393D01*
X135444890Y-65330134D01*
X135472339Y-65352661D01*
X135494866Y-65380110D01*
X135511607Y-65411431D01*
X135521915Y-65445409D01*
X135526000Y-65486890D01*
X135526000Y-66088110D01*
X135521915Y-66129591D01*
X135511607Y-66163569D01*
X135494866Y-66194890D01*
X135472339Y-66222339D01*
X135444890Y-66244866D01*
X135413569Y-66261607D01*
X135379591Y-66271915D01*
X135338110Y-66276000D01*
X134661890Y-66276000D01*
X134620409Y-66271915D01*
X134586431Y-66261607D01*
X134555110Y-66244866D01*
X134527661Y-66222339D01*
X134505134Y-66194890D01*
X134488393Y-66163569D01*
X134478085Y-66129591D01*
X134474000Y-66088110D01*
X134474000Y-65486890D01*
X134478085Y-65445409D01*
X134488393Y-65411431D01*
X134505134Y-65380110D01*
X134527661Y-65352661D01*
X134555110Y-65330134D01*
X134586431Y-65313393D01*
X134620409Y-65303085D01*
X134661890Y-65299000D01*
X135338110Y-65299000D01*
X135379591Y-65303085D01*
G37*
G36*
X141379591Y-65303085D02*
G01*
X141413569Y-65313393D01*
X141444890Y-65330134D01*
X141472339Y-65352661D01*
X141494866Y-65380110D01*
X141511607Y-65411431D01*
X141521915Y-65445409D01*
X141526000Y-65486890D01*
X141526000Y-66088110D01*
X141521915Y-66129591D01*
X141511607Y-66163569D01*
X141494866Y-66194890D01*
X141472339Y-66222339D01*
X141444890Y-66244866D01*
X141413569Y-66261607D01*
X141379591Y-66271915D01*
X141338110Y-66276000D01*
X140661890Y-66276000D01*
X140620409Y-66271915D01*
X140586431Y-66261607D01*
X140555110Y-66244866D01*
X140527661Y-66222339D01*
X140505134Y-66194890D01*
X140488393Y-66163569D01*
X140478085Y-66129591D01*
X140474000Y-66088110D01*
X140474000Y-65486890D01*
X140478085Y-65445409D01*
X140488393Y-65411431D01*
X140505134Y-65380110D01*
X140527661Y-65352661D01*
X140555110Y-65330134D01*
X140586431Y-65313393D01*
X140620409Y-65303085D01*
X140661890Y-65299000D01*
X141338110Y-65299000D01*
X141379591Y-65303085D01*
G37*
G36*
X137379591Y-65303085D02*
G01*
X137413569Y-65313393D01*
X137444890Y-65330134D01*
X137472339Y-65352661D01*
X137494866Y-65380110D01*
X137511607Y-65411431D01*
X137521915Y-65445409D01*
X137526000Y-65486890D01*
X137526000Y-66088110D01*
X137521915Y-66129591D01*
X137511607Y-66163569D01*
X137494866Y-66194890D01*
X137472339Y-66222339D01*
X137444890Y-66244866D01*
X137413569Y-66261607D01*
X137379591Y-66271915D01*
X137338110Y-66276000D01*
X136661890Y-66276000D01*
X136620409Y-66271915D01*
X136586431Y-66261607D01*
X136555110Y-66244866D01*
X136527661Y-66222339D01*
X136505134Y-66194890D01*
X136488393Y-66163569D01*
X136478085Y-66129591D01*
X136474000Y-66088110D01*
X136474000Y-65486890D01*
X136478085Y-65445409D01*
X136488393Y-65411431D01*
X136505134Y-65380110D01*
X136527661Y-65352661D01*
X136555110Y-65330134D01*
X136586431Y-65313393D01*
X136620409Y-65303085D01*
X136661890Y-65299000D01*
X137338110Y-65299000D01*
X137379591Y-65303085D01*
G37*
G36*
X139379591Y-65303085D02*
G01*
X139413569Y-65313393D01*
X139444890Y-65330134D01*
X139472339Y-65352661D01*
X139494866Y-65380110D01*
X139511607Y-65411431D01*
X139521915Y-65445409D01*
X139526000Y-65486890D01*
X139526000Y-66088110D01*
X139521915Y-66129591D01*
X139511607Y-66163569D01*
X139494866Y-66194890D01*
X139472339Y-66222339D01*
X139444890Y-66244866D01*
X139413569Y-66261607D01*
X139379591Y-66271915D01*
X139338110Y-66276000D01*
X138661890Y-66276000D01*
X138620409Y-66271915D01*
X138586431Y-66261607D01*
X138555110Y-66244866D01*
X138527661Y-66222339D01*
X138505134Y-66194890D01*
X138488393Y-66163569D01*
X138478085Y-66129591D01*
X138474000Y-66088110D01*
X138474000Y-65486890D01*
X138478085Y-65445409D01*
X138488393Y-65411431D01*
X138505134Y-65380110D01*
X138527661Y-65352661D01*
X138555110Y-65330134D01*
X138586431Y-65313393D01*
X138620409Y-65303085D01*
X138661890Y-65299000D01*
X139338110Y-65299000D01*
X139379591Y-65303085D01*
G37*
G36*
X133460499Y-63577445D02*
G01*
X133497995Y-63588820D01*
X133532554Y-63607292D01*
X133562847Y-63632153D01*
X133587708Y-63662446D01*
X133606180Y-63697005D01*
X133617555Y-63734501D01*
X133622000Y-63779638D01*
X133622000Y-64518362D01*
X133617555Y-64563499D01*
X133606180Y-64600995D01*
X133587708Y-64635554D01*
X133562847Y-64665847D01*
X133532554Y-64690708D01*
X133497995Y-64709180D01*
X133460499Y-64720555D01*
X133415362Y-64725000D01*
X132776638Y-64725000D01*
X132731501Y-64720555D01*
X132694005Y-64709180D01*
X132659446Y-64690708D01*
X132629153Y-64665847D01*
X132604292Y-64635554D01*
X132585820Y-64600995D01*
X132574445Y-64563499D01*
X132570000Y-64518362D01*
X132570000Y-63779638D01*
X132574445Y-63734501D01*
X132585820Y-63697005D01*
X132604292Y-63662446D01*
X132629153Y-63632153D01*
X132659446Y-63607292D01*
X132694005Y-63588820D01*
X132731501Y-63577445D01*
X132776638Y-63573000D01*
X133415362Y-63573000D01*
X133460499Y-63577445D01*
G37*
G36*
X127364499Y-63577445D02*
G01*
X127401995Y-63588820D01*
X127436554Y-63607292D01*
X127466847Y-63632153D01*
X127491708Y-63662446D01*
X127510180Y-63697005D01*
X127521555Y-63734501D01*
X127526000Y-63779638D01*
X127526000Y-64518362D01*
X127521555Y-64563499D01*
X127510180Y-64600995D01*
X127491708Y-64635554D01*
X127466847Y-64665847D01*
X127436554Y-64690708D01*
X127401995Y-64709180D01*
X127364499Y-64720555D01*
X127319362Y-64725000D01*
X126680638Y-64725000D01*
X126635501Y-64720555D01*
X126598005Y-64709180D01*
X126563446Y-64690708D01*
X126533153Y-64665847D01*
X126508292Y-64635554D01*
X126489820Y-64600995D01*
X126478445Y-64563499D01*
X126474000Y-64518362D01*
X126474000Y-63779638D01*
X126478445Y-63734501D01*
X126489820Y-63697005D01*
X126508292Y-63662446D01*
X126533153Y-63632153D01*
X126563446Y-63607292D01*
X126598005Y-63588820D01*
X126635501Y-63577445D01*
X126680638Y-63573000D01*
X127319362Y-63573000D01*
X127364499Y-63577445D01*
G37*
G36*
X129396499Y-63577445D02*
G01*
X129433995Y-63588820D01*
X129468554Y-63607292D01*
X129498847Y-63632153D01*
X129523708Y-63662446D01*
X129542180Y-63697005D01*
X129553555Y-63734501D01*
X129558000Y-63779638D01*
X129558000Y-64518362D01*
X129553555Y-64563499D01*
X129542180Y-64600995D01*
X129523708Y-64635554D01*
X129498847Y-64665847D01*
X129468554Y-64690708D01*
X129433995Y-64709180D01*
X129396499Y-64720555D01*
X129351362Y-64725000D01*
X128712638Y-64725000D01*
X128667501Y-64720555D01*
X128630005Y-64709180D01*
X128595446Y-64690708D01*
X128565153Y-64665847D01*
X128540292Y-64635554D01*
X128521820Y-64600995D01*
X128510445Y-64563499D01*
X128506000Y-64518362D01*
X128506000Y-63779638D01*
X128510445Y-63734501D01*
X128521820Y-63697005D01*
X128540292Y-63662446D01*
X128565153Y-63632153D01*
X128595446Y-63607292D01*
X128630005Y-63588820D01*
X128667501Y-63577445D01*
X128712638Y-63573000D01*
X129351362Y-63573000D01*
X129396499Y-63577445D01*
G37*
G36*
X131428499Y-63577445D02*
G01*
X131465995Y-63588820D01*
X131500554Y-63607292D01*
X131530847Y-63632153D01*
X131555708Y-63662446D01*
X131574180Y-63697005D01*
X131585555Y-63734501D01*
X131590000Y-63779638D01*
X131590000Y-64518362D01*
X131585555Y-64563499D01*
X131574180Y-64600995D01*
X131555708Y-64635554D01*
X131530847Y-64665847D01*
X131500554Y-64690708D01*
X131465995Y-64709180D01*
X131428499Y-64720555D01*
X131383362Y-64725000D01*
X130744638Y-64725000D01*
X130699501Y-64720555D01*
X130662005Y-64709180D01*
X130627446Y-64690708D01*
X130597153Y-64665847D01*
X130572292Y-64635554D01*
X130553820Y-64600995D01*
X130542445Y-64563499D01*
X130538000Y-64518362D01*
X130538000Y-63779638D01*
X130542445Y-63734501D01*
X130553820Y-63697005D01*
X130572292Y-63662446D01*
X130597153Y-63632153D01*
X130627446Y-63607292D01*
X130662005Y-63588820D01*
X130699501Y-63577445D01*
X130744638Y-63573000D01*
X131383362Y-63573000D01*
X131428499Y-63577445D01*
G37*
G36*
X135379591Y-63728085D02*
G01*
X135413569Y-63738393D01*
X135444890Y-63755134D01*
X135472339Y-63777661D01*
X135494866Y-63805110D01*
X135511607Y-63836431D01*
X135521915Y-63870409D01*
X135526000Y-63911890D01*
X135526000Y-64513110D01*
X135521915Y-64554591D01*
X135511607Y-64588569D01*
X135494866Y-64619890D01*
X135472339Y-64647339D01*
X135444890Y-64669866D01*
X135413569Y-64686607D01*
X135379591Y-64696915D01*
X135338110Y-64701000D01*
X134661890Y-64701000D01*
X134620409Y-64696915D01*
X134586431Y-64686607D01*
X134555110Y-64669866D01*
X134527661Y-64647339D01*
X134505134Y-64619890D01*
X134488393Y-64588569D01*
X134478085Y-64554591D01*
X134474000Y-64513110D01*
X134474000Y-63911890D01*
X134478085Y-63870409D01*
X134488393Y-63836431D01*
X134505134Y-63805110D01*
X134527661Y-63777661D01*
X134555110Y-63755134D01*
X134586431Y-63738393D01*
X134620409Y-63728085D01*
X134661890Y-63724000D01*
X135338110Y-63724000D01*
X135379591Y-63728085D01*
G37*
G36*
X137379591Y-63728085D02*
G01*
X137413569Y-63738393D01*
X137444890Y-63755134D01*
X137472339Y-63777661D01*
X137494866Y-63805110D01*
X137511607Y-63836431D01*
X137521915Y-63870409D01*
X137526000Y-63911890D01*
X137526000Y-64513110D01*
X137521915Y-64554591D01*
X137511607Y-64588569D01*
X137494866Y-64619890D01*
X137472339Y-64647339D01*
X137444890Y-64669866D01*
X137413569Y-64686607D01*
X137379591Y-64696915D01*
X137338110Y-64701000D01*
X136661890Y-64701000D01*
X136620409Y-64696915D01*
X136586431Y-64686607D01*
X136555110Y-64669866D01*
X136527661Y-64647339D01*
X136505134Y-64619890D01*
X136488393Y-64588569D01*
X136478085Y-64554591D01*
X136474000Y-64513110D01*
X136474000Y-63911890D01*
X136478085Y-63870409D01*
X136488393Y-63836431D01*
X136505134Y-63805110D01*
X136527661Y-63777661D01*
X136555110Y-63755134D01*
X136586431Y-63738393D01*
X136620409Y-63728085D01*
X136661890Y-63724000D01*
X137338110Y-63724000D01*
X137379591Y-63728085D01*
G37*
G36*
X139379591Y-63728085D02*
G01*
X139413569Y-63738393D01*
X139444890Y-63755134D01*
X139472339Y-63777661D01*
X139494866Y-63805110D01*
X139511607Y-63836431D01*
X139521915Y-63870409D01*
X139526000Y-63911890D01*
X139526000Y-64513110D01*
X139521915Y-64554591D01*
X139511607Y-64588569D01*
X139494866Y-64619890D01*
X139472339Y-64647339D01*
X139444890Y-64669866D01*
X139413569Y-64686607D01*
X139379591Y-64696915D01*
X139338110Y-64701000D01*
X138661890Y-64701000D01*
X138620409Y-64696915D01*
X138586431Y-64686607D01*
X138555110Y-64669866D01*
X138527661Y-64647339D01*
X138505134Y-64619890D01*
X138488393Y-64588569D01*
X138478085Y-64554591D01*
X138474000Y-64513110D01*
X138474000Y-63911890D01*
X138478085Y-63870409D01*
X138488393Y-63836431D01*
X138505134Y-63805110D01*
X138527661Y-63777661D01*
X138555110Y-63755134D01*
X138586431Y-63738393D01*
X138620409Y-63728085D01*
X138661890Y-63724000D01*
X139338110Y-63724000D01*
X139379591Y-63728085D01*
G37*
G36*
X141379591Y-63728085D02*
G01*
X141413569Y-63738393D01*
X141444890Y-63755134D01*
X141472339Y-63777661D01*
X141494866Y-63805110D01*
X141511607Y-63836431D01*
X141521915Y-63870409D01*
X141526000Y-63911890D01*
X141526000Y-64513110D01*
X141521915Y-64554591D01*
X141511607Y-64588569D01*
X141494866Y-64619890D01*
X141472339Y-64647339D01*
X141444890Y-64669866D01*
X141413569Y-64686607D01*
X141379591Y-64696915D01*
X141338110Y-64701000D01*
X140661890Y-64701000D01*
X140620409Y-64696915D01*
X140586431Y-64686607D01*
X140555110Y-64669866D01*
X140527661Y-64647339D01*
X140505134Y-64619890D01*
X140488393Y-64588569D01*
X140478085Y-64554591D01*
X140474000Y-64513110D01*
X140474000Y-63911890D01*
X140478085Y-63870409D01*
X140488393Y-63836431D01*
X140505134Y-63805110D01*
X140527661Y-63777661D01*
X140555110Y-63755134D01*
X140586431Y-63738393D01*
X140620409Y-63728085D01*
X140661890Y-63724000D01*
X141338110Y-63724000D01*
X141379591Y-63728085D01*
G37*
M02*
